<svg id="Layer_1" data-name="Layer 1" xmlns="http://www.w3.org/2000/svg" xmlns:xlink="http://www.w3.org/1999/xlink" viewBox="0 0 1811.25 424.14"><defs><style>.cls-1{fill:#fff;}.cls-2{fill:#d1d3d4;}.cls-3{fill:#b12a66;opacity:0.2;}.cls-4{fill:#bcbec0;}.cls-5{fill:#e6e7e8;}.cls-6{fill:#808285;}.cls-7{fill:#c42a6b;}.cls-8{fill:#92278f;}.cls-9{fill:#e43b48;}.cls-10{fill:#88275d;}.cls-11{fill:url(#linear-gradient);}.cls-12{fill:url(#linear-gradient-2);}</style><linearGradient id="linear-gradient" x1="640.75" y1="527.11" x2="706.41" y2="592.77" gradientUnits="userSpaceOnUse"><stop offset="0" stop-color="#c42a6b"/><stop offset="1" stop-color="#e43b48"/></linearGradient><linearGradient id="linear-gradient-2" x1="629.5" y1="531.36" x2="681.83" y2="583.69" gradientUnits="userSpaceOnUse"><stop offset="0" stop-color="#92278f"/><stop offset="1" stop-color="#88275d"/></linearGradient></defs><title>HEXaDecimate</title><polygon id="BG" class="cls-1" points="187.94 397.2 167.01 424.13 0 424.13 0 263.66 26.93 242.72 26.93 181.41 0 160.48 0 0 167.01 0 187.94 26.93 1643.31 26.93 1670.24 0 1811.25 0 1811.25 154.48 1784.32 181.41 1784.32 242.72 1811.25 269.66 1811.25 424.13 1670.24 424.13 1643.31 397.2 187.94 397.2"/><g id="FRAME"><g id="_Group_" data-name="&lt;Group&gt;"><polygon id="_Path_" data-name="&lt;Path&gt;" class="cls-2" points="1712.87 34.63 1720.69 26.81 1784.04 26.81 1784.04 103.62 1776.22 111.44 1776.22 34.63 1712.87 34.63"/><path id="_Compound_Path_" data-name="&lt;Compound Path&gt;" d="M1865.81,413v-84.8h-71.33l19.11-19.11h71.33v84.8Zm-57.7-90.44h63.34v76.81l7.82-7.82V314.74h-63.34Z" transform="translate(-95.24 -287.93)"/><polygon id="_Path_2" data-name="&lt;Path&gt;" class="cls-2" points="1776.22 390.43 1776.22 313.61 1784.04 321.43 1784.04 398.24 1720.69 398.24 1712.88 390.43 1776.22 390.43"/><path id="_Compound_Path_2" data-name="&lt;Compound Path&gt;" d="M1884.92,691.82h-71.33l-19.12-19.11h71.33v-84.8L1884.92,607Zm-69-5.65h63.34V609.37l-7.82-7.82v76.81h-63.34Z" transform="translate(-95.24 -287.93)"/><polygon id="_Path_3" data-name="&lt;Path&gt;" class="cls-2" points="1776.22 132.9 1776.22 151.84 1784.04 144.02 1784.04 125.08 1776.22 132.9"/><path id="_Compound_Path_3" data-name="&lt;Compound Path&gt;" d="M1865.81,453.41V418.49l19.11-19.12v34.92Zm5.65-32.58v18.95l7.82-7.82V413Z" transform="translate(-95.24 -287.93)"/><polygon id="_Path_4" data-name="&lt;Path&gt;" class="cls-2" points="1776.22 292.16 1784.04 299.98 1784.04 281.03 1776.22 273.21 1776.22 292.16"/><path id="_Compound_Path_4" data-name="&lt;Compound Path&gt;" d="M1884.92,601.55l-19.11-19.12V547.51l19.11,19.11Zm-13.47-21.45,7.82,7.82V569l-7.82-7.82Z" transform="translate(-95.24 -287.93)"/><polygon id="_Path_5" data-name="&lt;Path&gt;" class="cls-2" points="1691.42 390.43 1699.24 398.24 1680.29 398.24 1672.47 390.43 1691.42 390.43"/><path id="_Compound_Path_5" data-name="&lt;Compound Path&gt;" d="M1808.11,691.82h-34.92l-19.11-19.11H1789Zm-32.58-5.65h18.95l-7.82-7.82h-18.95Z" transform="translate(-95.24 -287.93)"/><polygon id="_Path_6" data-name="&lt;Path&gt;" class="cls-2" points="1699.24 26.81 1691.42 34.63 1672.47 34.63 1680.29 26.81 1699.24 26.81"/><path id="_Compound_Path_6" data-name="&lt;Compound Path&gt;" d="M1789,328.21h-34.92l19.11-19.11h34.92Zm-21.29-5.65h18.95l7.82-7.82h-18.95Z" transform="translate(-95.24 -287.93)"/></g><polygon id="_Path_7" data-name="&lt;Path&gt;" class="cls-3" points="79.36 80.68 842.65 80.68 777.49 48.1 92.83 48.1 92.83 21.16 19.84 21.16 19.84 94.15 46.78 94.15 46.78 330.91 19.84 330.91 19.84 403.89 92.83 403.89 92.83 376.96 777.49 376.96 842.65 344.38 79.36 344.38 79.36 80.68"/><path id="_Compound_Path_7" data-name="&lt;Compound Path&gt;" d="M912.46,368.61V363H174.6v-7.82H885.53V349.5H174.6V309.1H115.08v59.52h40.4v263.7h-40.4v59.51H174.6v-40.4H885.53v-5.65H174.6V638H912.46v-5.65H174.6V368.61Zm-757-19.11H134.19V328.21h21.29ZM120.73,363V314.74h48.22V349.5h-7.82V322.56H128.55v32.58h26.93V363Zm48.22-7.82V363h-7.82v-7.82Zm-7.82,13.47h7.82v263.7h-7.82Zm7.82,317.56H120.73V638h34.75v7.82H128.55v32.58h32.58V651.42h7.82Zm-13.47-34.75v21.29H134.19V651.42Zm5.65-5.65V638h7.82v7.82Z" transform="translate(-95.24 -287.93)"/><polygon id="_Path_8" data-name="&lt;Path&gt;" points="19.84 330.91 19.84 336.56 52.42 336.56 52.42 88.5 19.84 88.5 19.84 94.15 46.78 94.15 46.78 330.91 19.84 330.91"/><polygon id="_Path_9" data-name="&lt;Path&gt;" points="87.18 403.89 92.83 403.89 92.83 376.96 763.36 376.96 763.36 371.31 87.18 371.31 87.18 403.89"/><polygon id="_Path_10" data-name="&lt;Path&gt;" points="763.36 48.1 92.83 48.1 92.83 21.16 87.18 21.16 87.18 53.75 763.36 53.75 763.36 48.1"/><rect id="_Path_11" data-name="&lt;Path&gt;" x="46.91" y="48.23" width="5.39" height="5.39"/><rect id="_Path_12" data-name="&lt;Path&gt;" x="46.91" y="371.44" width="5.39" height="5.39"/><path id="_Compound_Path_8" data-name="&lt;Compound Path&gt;" d="M1858,664.89H879.62l72.64-32.58h873.14V368.61H952.2L887,336H1858Zm-952-5.65h946.33V341.68H911L953.53,363h877.52V638H953.47Z" transform="translate(-95.24 -287.93)"/><polygon id="_Path_13" data-name="&lt;Path&gt;" points="1749.28 363.49 857.63 363.49 857.63 357.84 1743.63 357.84 1743.63 67.21 857.63 67.21 857.63 61.57 1749.28 61.57 1749.28 363.49"/><path id="_Compound_Path_9" data-name="&lt;Compound Path&gt;" class="cls-4" d="M911,341.68,953.53,363h877.52V638H953.47L906,659.24h946.33V341.68Zm933.56,309.74H952.87v-5.65h886V355.15h-886V349.5h891.65Z" transform="translate(-95.24 -287.93)"/></g><g id="DECIMATE"><g id="_Group_2" data-name="&lt;Group&gt;"><polygon id="_Path_14" data-name="&lt;Path&gt;" points="1690.22 114.07 1601.88 114.07 1597.88 114.07 1597.88 118.07 1597.88 314.14 1597.88 318.14 1601.88 318.14 1690.22 318.14 1694.22 318.14 1694.22 314.14 1694.22 266.21 1694.22 262.21 1690.22 262.21 1655.75 262.21 1651.75 262.21 1651.75 266.21 1651.75 275.68 1640.35 275.68 1640.35 237.34 1676.75 237.34 1680.75 237.34 1680.75 233.34 1680.75 198.87 1680.75 194.87 1676.75 194.87 1640.35 194.87 1640.35 156.53 1651.75 156.53 1651.75 166 1651.75 170 1655.75 170 1690.22 170 1694.22 170 1694.22 166 1694.22 118.07 1694.22 114.07 1690.22 114.07"/><polygon id="_Path_15" data-name="&lt;Path&gt;" points="1582.48 114.07 1467.21 114.07 1463.21 114.07 1463.21 118.07 1463.21 166 1463.21 170 1467.21 170 1501.68 170 1503.61 170 1503.61 314.14 1503.61 318.14 1507.61 318.14 1542.08 318.14 1546.08 318.14 1546.08 314.14 1546.08 170 1548.02 170 1582.48 170 1586.48 170 1586.48 166 1586.48 118.07 1586.48 114.07 1582.48 114.07"/><path id="_Compound_Path_10" data-name="&lt;Compound Path&gt;" d="M1525.81,402h-53.87a21.26,21.26,0,0,0-21.23,21.23V606.07h42.46V538.74h11.41v67.34H1547V423.23A21.26,21.26,0,0,0,1525.81,402Zm-21.23,42.46v51.81h-11.41V444.46Z" transform="translate(-95.24 -287.93)"/><path id="_Path_16" data-name="&lt;Path&gt;" d="M1418.07,402h-40.4a21.1,21.1,0,0,0-13.47,4.82,21.1,21.1,0,0,0-13.47-4.82h-40.4a21.26,21.26,0,0,0-21.23,21.23V606.07h42.46V444.46H1343V606.07h42.46V444.46h11.4V606.07h42.46V423.23A21.26,21.26,0,0,0,1418.07,402Z" transform="translate(-95.24 -287.93)"/><polygon id="_Path_17" data-name="&lt;Path&gt;" points="1178.46 114.07 1090.13 114.07 1086.13 114.07 1086.13 118.07 1086.13 152.53 1086.13 156.53 1090.13 156.53 1113.07 156.53 1113.07 275.68 1090.13 275.68 1086.13 275.68 1086.13 279.68 1086.13 314.14 1086.13 318.14 1090.13 318.14 1178.46 318.14 1182.46 318.14 1182.46 314.14 1182.46 279.68 1182.46 275.68 1178.46 275.68 1155.53 275.68 1155.53 156.53 1178.46 156.53 1182.46 156.53 1182.46 152.53 1182.46 118.07 1182.46 114.07 1178.46 114.07"/><polygon id="_Path_18" data-name="&lt;Path&gt;" points="1070.73 114.07 982.4 114.07 978.4 114.07 978.4 118.07 978.4 314.14 978.4 318.14 982.4 318.14 1070.73 318.14 1074.73 318.14 1074.73 314.14 1074.73 266.21 1074.73 262.21 1070.73 262.21 1036.26 262.21 1032.26 262.21 1032.26 266.21 1032.26 275.68 1020.86 275.68 1020.86 156.53 1032.26 156.53 1032.26 166 1032.26 170 1036.26 170 1070.73 170 1074.73 170 1074.73 166 1074.73 118.07 1074.73 114.07 1070.73 114.07"/><polygon id="_Path_19" data-name="&lt;Path&gt;" points="962.99 114.07 874.66 114.07 870.66 114.07 870.66 118.07 870.66 314.14 870.66 318.14 874.66 318.14 962.99 318.14 966.99 318.14 966.99 314.14 966.99 266.21 966.99 262.21 962.99 262.21 928.53 262.21 924.53 262.21 924.53 266.21 924.53 275.68 913.12 275.68 913.12 237.34 949.52 237.34 953.52 237.34 953.52 233.34 953.52 198.87 953.52 194.87 949.52 194.87 913.12 194.87 913.12 156.53 924.53 156.53 924.53 166 924.53 170 928.53 170 962.99 170 966.99 170 966.99 166 966.99 118.07 966.99 114.07 962.99 114.07"/><path id="_Compound_Path_11" data-name="&lt;Compound Path&gt;" d="M933.26,402h-75.1V606.07h75.1a21.26,21.26,0,0,0,21.23-21.23V423.23A21.26,21.26,0,0,0,933.26,402ZM900.62,563.61V444.46H912V563.61Z" transform="translate(-95.24 -287.93)"/></g><g id="_Group_3" data-name="&lt;Group&gt;"><g id="_Group_4" data-name="&lt;Group&gt;"><polygon id="_Path_20" data-name="&lt;Path&gt;" class="cls-4" points="1609.65 117.83 1609.65 306.37 1623.12 292.91 1623.12 131.3 1609.65 117.83"/><polygon id="_Path_21" data-name="&lt;Path&gt;" class="cls-2" points="1623.12 131.3 1636.58 144.77 1636.58 279.44 1623.12 292.91 1623.12 131.3"/><polygon id="_Path_22" data-name="&lt;Path&gt;" class="cls-5" points="1609.65 117.83 1623.12 131.3 1676.98 131.3 1690.45 117.83 1609.65 117.83"/><polygon id="_Path_23" data-name="&lt;Path&gt;" class="cls-5" points="1623.12 292.91 1636.58 279.44 1663.52 279.44 1676.98 292.91 1623.12 292.91"/><polygon id="_Path_24" data-name="&lt;Path&gt;" class="cls-5" points="1663.52 265.97 1676.98 279.44 1690.45 265.97 1663.52 265.97"/><polygon id="_Path_25" data-name="&lt;Path&gt;" class="cls-5" points="1623.12 212.1 1636.58 198.64 1676.98 198.64 1663.52 212.1 1623.12 212.1"/><polygon id="_Path_26" data-name="&lt;Path&gt;" class="cls-4" points="1663.52 158.24 1676.98 144.77 1676.98 131.3 1663.52 144.77 1663.52 158.24"/><polygon id="_Path_27" data-name="&lt;Path&gt;" class="cls-4" points="1663.52 265.97 1663.52 279.44 1676.98 292.91 1676.98 279.44 1663.52 265.97"/><polygon id="_Path_28" data-name="&lt;Path&gt;" class="cls-2" points="1690.45 117.83 1676.98 131.3 1676.98 144.77 1690.45 158.24 1690.45 117.83"/><polygon id="_Path_29" data-name="&lt;Path&gt;" class="cls-2" points="1676.98 198.64 1663.52 212.1 1676.98 225.57 1676.98 198.64"/><polygon id="_Path_30" data-name="&lt;Path&gt;" class="cls-2" points="1690.45 265.97 1676.98 279.44 1676.98 292.91 1690.45 306.37 1690.45 265.97"/><polygon id="_Path_31" data-name="&lt;Path&gt;" class="cls-6" points="1609.65 306.37 1623.12 292.91 1676.98 292.91 1690.45 306.37 1609.65 306.37"/><polygon id="_Path_32" data-name="&lt;Path&gt;" class="cls-6" points="1623.12 212.1 1636.58 225.57 1676.98 225.57 1663.52 212.1 1623.12 212.1"/><polygon id="_Path_33" data-name="&lt;Path&gt;" class="cls-6" points="1623.12 131.3 1676.98 131.3 1663.52 144.77 1636.58 144.77 1623.12 131.3"/><polygon id="_Path_34" data-name="&lt;Path&gt;" class="cls-6" points="1663.52 158.24 1676.98 144.77 1690.45 158.24 1663.52 158.24"/><path id="_Compound_Path_12" data-name="&lt;Compound Path&gt;" class="cls-6" d="M1789.45,449.93V402h-88.33V598.07h88.33V550.14H1755v13.47h-19.4V517.27H1776V482.81h-40.4V436.46H1755v13.47Zm-57.63-17.23v53.87h40.4V513.5h-40.4v53.87h26.93V553.9h26.93v40.4h-80.8V405.77h80.8v40.4h-26.93V432.7Z" transform="translate(-95.24 -287.93)"/></g><g id="_Group_5" data-name="&lt;Group&gt;"><polygon id="_Path_35" data-name="&lt;Path&gt;" class="cls-6" points="1515.38 306.37 1528.85 292.91 1542.31 306.37 1515.38 306.37"/><polygon id="_Path_36" data-name="&lt;Path&gt;" class="cls-6" points="1474.98 158.24 1488.44 144.77 1501.91 158.24 1474.98 158.24"/><polygon id="_Path_37" data-name="&lt;Path&gt;" class="cls-6" points="1555.78 158.24 1569.25 144.77 1582.71 158.24 1555.78 158.24"/><polygon id="_Path_38" data-name="&lt;Path&gt;" class="cls-6" points="1555.78 144.77 1569.25 131.3 1528.85 131.3 1542.31 144.77 1555.78 144.77"/><polygon id="_Path_39" data-name="&lt;Path&gt;" class="cls-6" points="1515.38 144.77 1528.85 131.3 1488.44 131.3 1501.91 144.77 1515.38 144.77"/><polygon id="_Path_40" data-name="&lt;Path&gt;" class="cls-4" points="1474.98 117.83 1474.98 158.24 1488.44 144.77 1488.44 131.3 1474.98 117.83"/><polygon id="_Path_41" data-name="&lt;Path&gt;" class="cls-4" points="1528.85 131.3 1515.38 144.77 1515.38 306.37 1528.85 292.91 1528.85 131.3"/><polygon id="_Path_42" data-name="&lt;Path&gt;" class="cls-4" points="1569.25 131.3 1555.78 144.77 1555.78 158.24 1569.25 144.77 1569.25 131.3"/><polygon id="_Path_43" data-name="&lt;Path&gt;" class="cls-2" points="1582.71 117.83 1569.25 131.3 1569.25 144.77 1582.71 158.24 1582.71 117.83"/><polygon id="_Path_44" data-name="&lt;Path&gt;" class="cls-2" points="1528.85 131.3 1542.31 144.77 1542.31 306.37 1528.85 292.91 1528.85 131.3"/><polygon id="_Path_45" data-name="&lt;Path&gt;" class="cls-2" points="1488.44 131.3 1488.44 144.77 1501.91 158.24 1501.91 144.77 1488.44 131.3"/><polygon id="_Path_46" data-name="&lt;Path&gt;" class="cls-5" points="1474.98 117.83 1582.71 117.83 1569.25 131.3 1488.44 131.3 1474.98 117.83"/><path id="_Compound_Path_13" data-name="&lt;Compound Path&gt;" class="cls-6" d="M1566.45,402v47.93h34.46V436.46h5.94V598.07h34.46V436.46h5.94v13.47h34.46V402ZM1678,446.17H1651V432.7h-13.47V594.31h-26.93V432.7h-13.47v13.47h-26.93v-40.4H1678Z" transform="translate(-95.24 -287.93)"/></g><g id="_Group_6" data-name="&lt;Group&gt;"><path id="_Path_47" data-name="&lt;Path&gt;" class="cls-5" d="M1475.94,419.23h53.87l9.52-9.52a13.43,13.43,0,0,0-9.52-3.94h-53.87a13.42,13.42,0,0,0-9.52,3.94Z" transform="translate(-95.24 -287.93)"/><path id="_Path_48" data-name="&lt;Path&gt;" class="cls-4" d="M1475.94,419.23l-9.52-9.52a13.42,13.42,0,0,0-3.94,9.52V594.31l13.47-13.47Z" transform="translate(-95.24 -287.93)"/><path id="_Path_49" data-name="&lt;Path&gt;" class="cls-2" d="M1539.34,409.71l-9.52,9.52V580.84l13.47,13.47V419.23A13.42,13.42,0,0,0,1539.34,409.71Z" transform="translate(-95.24 -287.93)"/><polygon id="_Path_50" data-name="&lt;Path&gt;" class="cls-2" points="1380.71 131.3 1394.17 144.77 1394.17 212.1 1380.71 225.57 1380.71 131.3"/><polygon id="_Path_51" data-name="&lt;Path&gt;" class="cls-6" points="1367.24 306.37 1380.71 292.91 1394.17 306.37 1367.24 306.37"/><polygon id="_Path_52" data-name="&lt;Path&gt;" class="cls-6" points="1421.11 306.37 1434.58 292.91 1448.04 306.37 1421.11 306.37"/><polygon id="_Path_53" data-name="&lt;Path&gt;" class="cls-6" points="1394.17 239.04 1380.71 225.57 1434.58 225.57 1421.11 239.04 1394.17 239.04"/><polygon id="_Path_54" data-name="&lt;Path&gt;" class="cls-6" points="1394.17 144.77 1380.71 131.3 1434.58 131.3 1421.11 144.77 1394.17 144.77"/><polygon id="_Path_55" data-name="&lt;Path&gt;" class="cls-5" points="1380.71 225.57 1394.17 212.1 1421.11 212.1 1434.58 225.57 1380.71 225.57"/><polygon id="_Path_56" data-name="&lt;Path&gt;" class="cls-4" points="1434.58 131.3 1421.11 144.77 1421.11 212.1 1434.58 225.57 1434.58 131.3"/><polygon id="_Path_57" data-name="&lt;Path&gt;" class="cls-4" points="1421.11 239.04 1421.11 306.37 1434.58 292.91 1434.58 225.57 1421.11 239.04"/><polygon id="_Path_58" data-name="&lt;Path&gt;" class="cls-2" points="1380.71 292.91 1380.71 225.57 1394.17 239.04 1394.17 306.37 1380.71 292.91"/><path id="_Compound_Path_14" data-name="&lt;Compound Path&gt;" class="cls-6" d="M1489.41,500h26.93V432.7h-26.93Zm3.76-63.57h19.41v59.81h-19.41Z" transform="translate(-95.24 -287.93)"/><path id="_Compound_Path_15" data-name="&lt;Compound Path&gt;" class="cls-6" d="M1529.81,402h-53.87a17.25,17.25,0,0,0-17.23,17.23V598.07h34.46V530.74h19.41v67.34H1547V419.23A17.25,17.25,0,0,0,1529.81,402Zm13.47,192.3h-26.93V527h-26.93v67.34h-26.93V419.24a13.47,13.47,0,0,1,13.47-13.47h53.86a13.47,13.47,0,0,1,13.47,13.47Z" transform="translate(-95.24 -287.93)"/></g><g id="_Group_7" data-name="&lt;Group&gt;"><path id="_Path_59" data-name="&lt;Path&gt;" class="cls-5" d="M1431.6,409.71a13.42,13.42,0,0,0-9.52-3.94h-40.4a13.47,13.47,0,0,0-13.47,13.47h53.87Z" transform="translate(-95.24 -287.93)"/><path id="_Path_60" data-name="&lt;Path&gt;" class="cls-5" d="M1314.34,419.23h53.87a13.47,13.47,0,0,0-13.47-13.47h-40.4a13.43,13.43,0,0,0-9.52,3.94Z" transform="translate(-95.24 -287.93)"/><path id="_Path_61" data-name="&lt;Path&gt;" class="cls-4" d="M1314.34,419.23l-9.52-9.52a13.42,13.42,0,0,0-3.94,9.52V594.31l13.47-13.47Z" transform="translate(-95.24 -287.93)"/><path id="_Path_62" data-name="&lt;Path&gt;" class="cls-2" d="M1422.08,419.23V580.84l13.47,13.47V419.23a13.42,13.42,0,0,0-3.94-9.52Z" transform="translate(-95.24 -287.93)"/><polygon id="_Path_63" data-name="&lt;Path&gt;" class="cls-4" points="1259.5 144.77 1272.97 131.3 1272.97 292.91 1259.5 306.37 1259.5 144.77"/><polygon id="_Path_64" data-name="&lt;Path&gt;" class="cls-4" points="1313.37 144.77 1326.84 131.3 1326.84 292.91 1313.37 306.37 1313.37 144.77"/><polygon id="_Path_65" data-name="&lt;Path&gt;" class="cls-2" points="1219.1 131.3 1219.1 292.91 1232.57 306.37 1232.57 144.77 1219.1 131.3"/><polygon id="_Path_66" data-name="&lt;Path&gt;" class="cls-2" points="1272.97 131.3 1286.44 144.77 1286.44 306.37 1272.97 292.91 1272.97 131.3"/><polygon id="_Path_67" data-name="&lt;Path&gt;" class="cls-6" points="1219.1 131.3 1232.57 144.77 1259.5 144.77 1272.97 131.3 1219.1 131.3"/><polygon id="_Path_68" data-name="&lt;Path&gt;" class="cls-6" points="1205.63 306.37 1219.1 292.91 1232.57 306.37 1205.63 306.37"/><polygon id="_Path_69" data-name="&lt;Path&gt;" class="cls-6" points="1272.97 131.3 1286.44 144.77 1313.37 144.77 1326.84 131.3 1272.97 131.3"/><polygon id="_Path_70" data-name="&lt;Path&gt;" class="cls-6" points="1259.5 306.37 1272.97 292.91 1286.44 306.37 1259.5 306.37"/><polygon id="_Path_71" data-name="&lt;Path&gt;" class="cls-6" points="1313.37 306.37 1326.84 292.91 1340.31 306.37 1313.37 306.37"/><path id="_Compound_Path_16" data-name="&lt;Compound Path&gt;" class="cls-6" d="M1422.07,402h-40.4a17.2,17.2,0,0,0-13.47,6.49,17.21,17.21,0,0,0-13.47-6.49h-40.4a17.25,17.25,0,0,0-17.23,17.23V598.07h34.46V436.46H1351V598.07h34.46V436.46h19.4V598.07h34.46V419.23A17.25,17.25,0,0,0,1422.07,402Zm13.47,192.3h-26.93V432.7h-26.93V594.31h-26.93V432.7h-26.93V594.31h-26.93V419.24a13.47,13.47,0,0,1,13.47-13.47h40.4a13.47,13.47,0,0,1,13.47,13.47,13.47,13.47,0,0,1,13.47-13.47h40.4a13.47,13.47,0,0,1,13.47,13.47Z" transform="translate(-95.24 -287.93)"/></g><g id="_Group_8" data-name="&lt;Group&gt;"><polygon id="_Path_72" data-name="&lt;Path&gt;" class="cls-4" points="1097.9 306.37 1097.9 279.44 1111.37 292.91 1097.9 306.37"/><polygon id="_Path_73" data-name="&lt;Path&gt;" class="cls-5" points="1097.9 279.44 1124.83 279.44 1138.3 292.91 1111.37 292.91 1097.9 279.44"/><polygon id="_Path_74" data-name="&lt;Path&gt;" class="cls-4" points="1124.83 279.44 1124.83 144.77 1138.3 131.3 1138.3 292.91 1124.83 279.44"/><polygon id="_Path_75" data-name="&lt;Path&gt;" class="cls-2" points="1138.3 131.3 1151.77 144.77 1151.77 279.44 1138.3 292.91 1138.3 131.3"/><polygon id="_Path_76" data-name="&lt;Path&gt;" class="cls-2" points="1165.23 292.91 1178.7 279.44 1178.7 306.37 1165.23 292.91"/><polygon id="_Path_77" data-name="&lt;Path&gt;" class="cls-5" points="1151.77 279.44 1178.7 279.44 1165.23 292.91 1138.3 292.91 1151.77 279.44"/><polygon id="_Path_78" data-name="&lt;Path&gt;" class="cls-6" points="1097.9 306.37 1111.37 292.91 1165.23 292.91 1178.7 306.37 1097.9 306.37"/><polygon id="_Path_79" data-name="&lt;Path&gt;" class="cls-2" points="1178.7 117.83 1165.23 131.3 1178.7 144.77 1178.7 117.83"/><polygon id="_Path_80" data-name="&lt;Path&gt;" class="cls-5" points="1097.9 117.83 1178.7 117.83 1165.23 131.3 1111.37 131.3 1097.9 117.83"/><polygon id="_Path_81" data-name="&lt;Path&gt;" class="cls-4" points="1097.9 117.83 1097.9 144.77 1111.37 131.3 1097.9 117.83"/><polygon id="_Path_82" data-name="&lt;Path&gt;" class="cls-6" points="1097.9 144.77 1111.37 131.3 1138.3 131.3 1124.83 144.77 1097.9 144.77"/><polygon id="_Path_83" data-name="&lt;Path&gt;" class="cls-6" points="1151.77 144.77 1178.7 144.77 1165.23 131.3 1138.3 131.3 1151.77 144.77"/><path id="_Compound_Path_17" data-name="&lt;Compound Path&gt;" class="cls-6" d="M1277.7,436.46V402h-88.33v34.46h26.93V563.61h-26.93v34.46h88.33V563.61h-26.93V436.46Zm-3.76,130.91v26.93h-80.8V567.37h26.93V432.7h-26.93V405.77h80.8V432.7H1247V567.37Z" transform="translate(-95.24 -287.93)"/></g><g id="_Group_9" data-name="&lt;Group&gt;"><polygon id="_Path_84" data-name="&lt;Path&gt;" class="cls-4" points="990.16 117.83 990.16 306.37 1003.63 292.91 1003.63 131.3 990.16 117.83"/><polygon id="_Path_85" data-name="&lt;Path&gt;" class="cls-2" points="1003.63 131.3 1017.1 144.77 1017.1 279.44 1003.63 292.91 1003.63 131.3"/><polygon id="_Path_86" data-name="&lt;Path&gt;" class="cls-5" points="990.16 117.83 1003.63 131.3 1057.5 131.3 1070.96 117.83 990.16 117.83"/><polygon id="_Path_87" data-name="&lt;Path&gt;" class="cls-5" points="1003.63 292.91 1017.1 279.44 1044.03 279.44 1057.5 292.91 1003.63 292.91"/><polygon id="_Path_88" data-name="&lt;Path&gt;" class="cls-5" points="1044.03 265.97 1057.5 279.44 1070.96 265.97 1044.03 265.97"/><polygon id="_Path_89" data-name="&lt;Path&gt;" class="cls-4" points="1044.03 158.24 1057.5 144.77 1057.5 131.3 1044.03 144.77 1044.03 158.24"/><polygon id="_Path_90" data-name="&lt;Path&gt;" class="cls-4" points="1044.03 265.97 1044.03 279.44 1057.5 292.91 1057.5 279.44 1044.03 265.97"/><polygon id="_Path_91" data-name="&lt;Path&gt;" class="cls-2" points="1070.96 117.83 1057.5 131.3 1057.5 144.77 1070.96 158.24 1070.96 117.83"/><polygon id="_Path_92" data-name="&lt;Path&gt;" class="cls-2" points="1070.96 265.97 1057.5 279.44 1057.5 292.91 1070.96 306.37 1070.96 265.97"/><polygon id="_Path_93" data-name="&lt;Path&gt;" class="cls-6" points="990.16 306.37 1003.63 292.91 1057.5 292.91 1070.96 306.37 990.16 306.37"/><polygon id="_Path_94" data-name="&lt;Path&gt;" class="cls-6" points="1003.63 131.3 1057.5 131.3 1044.03 144.77 1017.1 144.77 1003.63 131.3"/><polygon id="_Path_95" data-name="&lt;Path&gt;" class="cls-6" points="1044.03 158.24 1057.5 144.77 1070.96 158.24 1044.03 158.24"/><path id="_Compound_Path_18" data-name="&lt;Compound Path&gt;" class="cls-6" d="M1170,449.93V402h-88.33V598.07H1170V550.14H1135.5v13.47h-19.4V436.46h19.4v13.47Zm-57.63-17.23V567.37h26.93V553.9h26.93v40.4h-80.8V405.77h80.8v40.4h-26.93V432.7Z" transform="translate(-95.24 -287.93)"/></g><g id="_Group_10" data-name="&lt;Group&gt;"><polygon id="_Path_96" data-name="&lt;Path&gt;" class="cls-4" points="882.42 117.83 882.42 306.37 895.89 292.91 895.89 131.3 882.42 117.83"/><polygon id="_Path_97" data-name="&lt;Path&gt;" class="cls-2" points="895.89 131.3 909.36 144.77 909.36 279.44 895.89 292.91 895.89 131.3"/><polygon id="_Path_98" data-name="&lt;Path&gt;" class="cls-5" points="882.42 117.83 895.89 131.3 949.76 131.3 963.23 117.83 882.42 117.83"/><polygon id="_Path_99" data-name="&lt;Path&gt;" class="cls-5" points="895.89 292.91 909.36 279.44 936.29 279.44 949.76 292.91 895.89 292.91"/><polygon id="_Path_100" data-name="&lt;Path&gt;" class="cls-5" points="936.29 265.97 949.76 279.44 963.23 265.97 936.29 265.97"/><polygon id="_Path_101" data-name="&lt;Path&gt;" class="cls-5" points="895.89 212.1 909.36 198.64 949.76 198.64 936.29 212.1 895.89 212.1"/><polygon id="_Path_102" data-name="&lt;Path&gt;" class="cls-4" points="936.29 158.24 949.76 144.77 949.76 131.3 936.29 144.77 936.29 158.24"/><polygon id="_Path_103" data-name="&lt;Path&gt;" class="cls-4" points="936.29 265.97 936.29 279.44 949.76 292.91 949.76 279.44 936.29 265.97"/><polygon id="_Path_104" data-name="&lt;Path&gt;" class="cls-2" points="963.23 117.83 949.76 131.3 949.76 144.77 963.23 158.24 963.23 117.83"/><polygon id="_Path_105" data-name="&lt;Path&gt;" class="cls-2" points="949.76 198.64 936.29 212.1 949.76 225.57 949.76 198.64"/><polygon id="_Path_106" data-name="&lt;Path&gt;" class="cls-2" points="963.23 265.97 949.76 279.44 949.76 292.91 963.23 306.37 963.23 265.97"/><polygon id="_Path_107" data-name="&lt;Path&gt;" class="cls-6" points="882.42 306.37 895.89 292.91 949.76 292.91 963.23 306.37 882.42 306.37"/><polygon id="_Path_108" data-name="&lt;Path&gt;" class="cls-6" points="895.89 212.1 909.36 225.57 949.76 225.57 936.29 212.1 895.89 212.1"/><polygon id="_Path_109" data-name="&lt;Path&gt;" class="cls-6" points="895.89 131.3 949.76 131.3 936.29 144.77 909.36 144.77 895.89 131.3"/><polygon id="_Path_110" data-name="&lt;Path&gt;" class="cls-6" points="936.29 158.24 949.76 144.77 963.23 158.24 936.29 158.24"/><path id="_Compound_Path_19" data-name="&lt;Compound Path&gt;" class="cls-6" d="M1062.23,449.93V402H973.9V598.07h88.33V550.14h-34.46v13.47h-19.4V517.27h40.4V482.81h-40.4V436.46h19.4v13.47Zm-57.63-17.23v53.87H1045V513.5h-40.4v53.87h26.93V553.9h26.93v40.4h-80.8V405.77h80.8v40.4h-26.93V432.7Z" transform="translate(-95.24 -287.93)"/></g><g id="_Group_11" data-name="&lt;Group&gt;"><polygon id="_Path_111" data-name="&lt;Path&gt;" class="cls-5" points="801.62 279.44 788.15 292.91 842.02 292.91 828.55 279.44 801.62 279.44"/><polygon id="_Path_112" data-name="&lt;Path&gt;" class="cls-4" points="774.69 117.83 774.69 306.37 788.15 292.91 788.15 131.3 774.69 117.83"/><polygon id="_Path_113" data-name="&lt;Path&gt;" class="cls-4" points="842.02 131.3 828.55 144.77 828.55 279.44 842.02 292.91 842.02 131.3"/><polygon id="_Path_114" data-name="&lt;Path&gt;" class="cls-6" points="788.15 131.3 842.02 131.3 828.55 144.77 801.62 144.77 788.15 131.3"/><polygon id="_Path_115" data-name="&lt;Path&gt;" class="cls-2" points="788.15 131.3 801.62 144.77 801.62 279.44 788.15 292.91 788.15 131.3"/><path id="_Path_116" data-name="&lt;Path&gt;" class="cls-6" d="M937.26,580.84H883.39l-13.47,13.47h67.34a13.43,13.43,0,0,0,9.52-3.94Z" transform="translate(-95.24 -287.93)"/><path id="_Path_117" data-name="&lt;Path&gt;" class="cls-5" d="M937.26,419.23l9.52-9.52a13.43,13.43,0,0,0-9.52-3.94H869.92l13.47,13.47Z" transform="translate(-95.24 -287.93)"/><path id="_Path_118" data-name="&lt;Path&gt;" class="cls-2" d="M946.78,409.71l-9.52,9.52V580.84l9.52,9.52a13.42,13.42,0,0,0,3.94-9.52V419.23A13.42,13.42,0,0,0,946.78,409.71Z" transform="translate(-95.24 -287.93)"/><path id="_Compound_Path_20" data-name="&lt;Compound Path&gt;" class="cls-6" d="M937.26,402h-71.1V598.07h71.1a17.25,17.25,0,0,0,17.23-17.23V419.23A17.25,17.25,0,0,0,937.26,402Zm13.47,178.83a13.47,13.47,0,0,1-13.47,13.47H869.92V405.77h67.33a13.47,13.47,0,0,1,13.47,13.47Z" transform="translate(-95.24 -287.93)"/><path id="_Compound_Path_21" data-name="&lt;Compound Path&gt;" class="cls-6" d="M896.86,567.37h26.93V432.7H896.86Zm3.76-130.91H920V563.61H900.62Z" transform="translate(-95.24 -287.93)"/></g></g></g><g id="HEXA"><g id="_Group_12" data-name="&lt;Group&gt;"><path id="_Path_119" data-name="&lt;Path&gt;" d="M813,571.66c-22.27,17.43-42.73,25-71.23,25.39-38.1.51-70.37-26.36-95.12-68.93h0l-3.75-6.51q-3.81-6.52-7.87-14.12l-6.24-11.13q14.93-18.73,32.85-39.37,9.5-11.4,17.38-20.09,9-9.5,14.66-14.93,5.43-5.43,7.6-5.7a6.36,6.36,0,0,0,2.72-1.36,3.88,3.88,0,0,0,1.63-3,2.3,2.3,0,0,0-1.36-1.9,4.86,4.86,0,0,0-3.26-.54,58.25,58.25,0,0,1-6.24.27l-29.6-.27q-3.53,0-3.53,3.53a1.82,1.82,0,0,0,.81,1.63,3.38,3.38,0,0,0,1.63.81l1.9.81a3.44,3.44,0,0,1,1.36,1.9Q666.54,429,653,449.4q-5.7,8.69-13.58,19-6.79,9-15.2,19.28-9.51-17.37-20.91-40.19Q597,435,593.5,427.41q-3.81-8.69-3.53-9.77a6.37,6.37,0,0,1,1.63-1.09l1.36-.81a3.4,3.4,0,0,0,1.63-3q0-3.26-5.7-3.26-6.52.27-17.1.27l-21.18-.27a4.22,4.22,0,0,0-3.8,3.8q-.27,1.9,3.26,3a3.25,3.25,0,0,0,1.36.54l1.09.27a5.94,5.94,0,0,1,1.9,1.09l1.09,1.09q2.17,3,8.69,13.58,5.43,8.69,13.85,23.62,3.8,6,7.87,13.58l21.72,37.47q-4.07,5.16-9.5,12.76l-10,13.85q-6.52,9.23-10.32,14.12l-10,13.85q-11.4,14.66-19,22-9,9.23-14.12,9.23a3.36,3.36,0,0,0-1.9.54,6.9,6.9,0,0,0-1.09,3.26c.36,1.81,1,2.8,1.9,3l6.52-.27h27.7q4.07,0,4.07-3a3.37,3.37,0,0,0-2.44-3.53q1.9-8.69,16-33.4A453,453,0,0,1,612.78,517l11.43,19.64c33.87,61.85,79,75.49,107.28,75.49,54.58,0,82.19-33.88,85.33-37S814.93,568.86,813,571.66Z" transform="translate(-95.24 -287.93)"/><path id="_Compound_Path_22" data-name="&lt;Compound Path&gt;" d="M825.08,551.85a3.36,3.36,0,0,1-2.07-.94,16.06,16.06,0,0,1-3.2-4.52q-1.32-2.64-6.41-18.84-5.09-16.39-10.55-36-6.22-21.86-10-37.5-4.34-18.09-4.33-23.18a3.79,3.79,0,0,1,.19-1.7c0-.12.19-.19.57-.19q1.13,0,1.13-2.45,0-2.26-2.45-2.26-2.08.19-6,.19H764.78q-4.34,0-4.33,3c0,.75.12,1.2.38,1.32a1.48,1.48,0,0,0,.94.19,2.33,2.33,0,0,1,1.32.38,2.3,2.3,0,0,1,.56,1.7,22.26,22.26,0,0,1-1.13,5.09l-10.36,26.76q-11.87,32-23.37,58.6-6,13.95-10.18,21.67-4.52,8.67-6,8.67a2.33,2.33,0,0,0-2.64,2.64,1.7,1.7,0,0,0,1.13,1.51,3.64,3.64,0,0,0,1.88.56l4.15-.19h21.48q4.33,0,4.33-2.26t-4.15-2.26q-4.52,0-4.52-8.48.18-6,3.58-17.52,1.13-4.33,2.83-10a42.83,42.83,0,0,0,1.51-4.71l.38-1.13a2.88,2.88,0,0,0,.38-1.13l.75-2.26q.57-.57,5.09-.94l11.12-.56q12.62-.38,28.64-.38,4.33,17.15,6.78,27.89,2.83,12.63,2.83,16.39,0,2.83-2.45,2.83a1.63,1.63,0,0,0-1.32.75,3.64,3.64,0,0,0-.57,1.88,2,2,0,0,0,.75,1.7,2.5,2.5,0,0,0,1.51.56l27.32-.38a4.47,4.47,0,0,0,2.83-.75,2.34,2.34,0,0,0,.75-1.7C827,552.54,826.33,551.85,825.08,551.85Zm-47.86-53H758.56q-10.74,0-12.44-.57,1.51-4.9,5.28-14.89,3-7.91,7.54-19.22l10.74-26.76a23.16,23.16,0,0,0,.75,2.64q.75,2.08,1.51,4.71l9.23,32.6,5.65,21.11Z" transform="translate(-95.24 -287.93)"/><path id="_Path_120" data-name="&lt;Path&gt;" d="M441.26,420.92l6-.82a89.67,89.67,0,0,1,9.25-.54h6q21.23,0,36.75,4.63,17.15,5.17,17.15,13.34A2.61,2.61,0,0,0,518,439.7a4.43,4.43,0,0,0,2.45.54q.27,0,2.18-5.17,1.63-4.63,3.54-11.43,2.18-7.08,3.27-12,1.63-5.72,1.36-6.26,0-2.45-4.08-.54-15.25,4.63-71.59,4.63H441.53v-3q-9.53,0-22.59,1.09-10.35.82-18,1.9-3,.28-3.54,2.18a3,3,0,0,0-.27,1.36v1.36c0,1.45.36,2.18,1.09,2.18l4.36-.27q8.71,0,8.71,57.44v13.7h0c-17.58-.54-37.9-1.08-54.42-1.29L358,458.76q1.36-28.58,2.18-33.75,1.36-6.53,3-8.17A6.08,6.08,0,0,1,365,416h2.45a4.78,4.78,0,0,0,3.54-1.36,4.4,4.4,0,0,0,.82-2.72,3.09,3.09,0,0,0-.27-1.36,2.93,2.93,0,0,0-2.72-1.36l-38.92.27q-8.44,0-11.16-.27a3.18,3.18,0,0,0-2.72,3.54q0,2.73,4.08,3.27l3,.27a6.47,6.47,0,0,1,3,1.36q3,2.18,3.54,9l.54,4.36q.27,3.27.27,9.53c0,8.15-.08,23.45-.24,45.75-52.22,1.7-73.85,13.25-84.34,28l.2-8.16.27-15.79q1.08-58.52,4.63-68.6,1.9-5.72,5.72-5.72,5.17,0,5.17-4.08,0-2.45-1.63-2.72a20.41,20.41,0,0,1-3.81.27H210.16q-4.63,0-4.63,4.08a1.94,1.94,0,0,0,1.09,1.91,3.33,3.33,0,0,0,1.91.54q9,0,9.8,6.8A215.66,215.66,0,0,1,220,449v41.65q0,75.95-5.44,96.09-1.37,6.81-7.62,6.81a4.05,4.05,0,0,0-3,1.09,4.81,4.81,0,0,0-.54,2.18q0,3.54,3.81,3.54l46-.27q4.35,0,4.36-3.81,0-2.72-3.54-2.72-6.81,0-7.89-9.53-.55-6.53-.82-19.33V539.87l.37-15.22C259.23,510.81,277.07,501,330,499.59l-.09,4.62q-.55,35.39-1.63,56.35-.82,19.33-2.18,25.86-1.09,5.45-3,6.53a4.81,4.81,0,0,1-2.18.54h-2.72Q315,593.5,315,597q0,3.27,6,3.27H325a.81.81,0,0,0,.54-.27h43q4.63,0,4.63-3.54a2.65,2.65,0,0,0-3-3q-10.62,0-12.79-8.44-.55-1.63-.82-9.8V514.83c0-4.64,0-9.76.09-15.18l54.62,1q0,68.87-5.44,88.19-1.09,4.36-5.72,4.36-4.08,0-4.08,4.36,0,2.72,2.45,2.72h9l1.91-.27h65.87l41.38.82q3.27-2.45,7.89-14.16A108.81,108.81,0,0,0,530.27,569q.54-1.08-2.72-1.36-3-.54-3.27,1.09a13.57,13.57,0,0,1-1.63,4.08,15.54,15.54,0,0,1-3.81,4.36q-16.06,9.8-45.19,9.8-26.95,0-33.75-7.08-3.27-3.53-2.72-20.14l.82-53.9v-4.22h0c4.9-.54,12.25.24,22,.24A169,169,0,0,1,489.16,504q11.43,2.18,11.43,4.9a11.37,11.37,0,0,0-.27,2.72,4.22,4.22,0,0,0,3,.82q1.08,0,2.72-3.81,1.08-2.45,3.54-10.07,3.54-11.7,4.08-16.6c0-.54-.46-1-1.36-1.36a2.66,2.66,0,0,0-1.36-.54,2.62,2.62,0,0,0-2.45,1.63l-.82,1.36a5.84,5.84,0,0,1-2.72,1.63,48.21,48.21,0,0,1-6.26,2.18q-10.07,2.18-26.13,2.18-11.43,0-21-.27s-5.22-.2-13.53-.49h0l1.56-53A142.94,142.94,0,0,1,441.26,420.92Z" transform="translate(-95.24 -287.93)"/></g><g id="_Group_13" data-name="&lt;Group&gt;"><g id="_Group_14" data-name="&lt;Group&gt;"><path id="_Path_121" data-name="&lt;Path&gt;" class="cls-7" d="M264.24,405.22a20.41,20.41,0,0,1-3.81.27H214.16q-4.63,0-4.63,4.08a1.94,1.94,0,0,0,1.09,1.91,3.33,3.33,0,0,0,1.91.54q9,0,9.8,6.8A215.66,215.66,0,0,1,224,445v41.65q0,75.95-5.44,96.09-1.37,6.81-7.62,6.81a4.05,4.05,0,0,0-3,1.09,4.81,4.81,0,0,0-.54,2.18q0,3.54,3.81,3.54l46-.27q4.35,0,4.36-3.81,0-2.72-3.54-2.72-6.81,0-7.89-9.53-.55-6.53-.82-19.33V535.87l.82-33.75.27-15.79q1.08-58.52,4.63-68.6,1.9-5.72,5.72-5.72,5.17,0,5.17-4.08Q265.87,405.49,264.24,405.22Z" transform="translate(-95.24 -287.93)"/><path id="_Path_122" data-name="&lt;Path&gt;" class="cls-8" d="M209.53,409.57a1.94,1.94,0,0,0,1.09,1.91,3.33,3.33,0,0,0,1.91.54q9,0,9.8,6.8A215.66,215.66,0,0,1,224,445v41.65q0,75.95-5.44,96.09-1.37,6.81-7.62,6.81a4.05,4.05,0,0,0-3,1.09,4.81,4.81,0,0,0-.54,2.18,4.25,4.25,0,0,0,.35,1.77l28.92-8.19V415.49l-25.77-9.08A3.75,3.75,0,0,0,209.53,409.57Z" transform="translate(-95.24 -287.93)"/><path id="_Path_123" data-name="&lt;Path&gt;" class="cls-9" d="M264.24,405.22a20.41,20.41,0,0,1-3.81.27H214.16a5.26,5.26,0,0,0-3.32.92l25.78,9.08L265.79,407A1.89,1.89,0,0,0,264.24,405.22Z" transform="translate(-95.24 -287.93)"/><path id="_Path_124" data-name="&lt;Path&gt;" class="cls-10" d="M260.15,595.27l-23.54-8.92-28.92,8.19c.53,1.17,1.67,1.77,3.47,1.77l46-.27A5.14,5.14,0,0,0,260.15,595.27Z" transform="translate(-95.24 -287.93)"/></g><g id="_Group_15" data-name="&lt;Group&gt;"><path id="_Path_125" data-name="&lt;Path&gt;" class="cls-7" d="M817,567.66c-22.27,17.43-42.73,25-71.23,25.39-38.1.51-70.37-26.36-95.12-68.93l-22.49,8.53c33.87,61.85,79,75.49,107.28,75.49,54.58,0,82.19-33.88,85.33-37S818.93,564.86,817,567.66Z" transform="translate(-95.24 -287.93)"/><path id="_Path_126" data-name="&lt;Path&gt;" class="cls-11" d="M684.15,581.37a98.9,98.9,0,0,0,21.71,12l6.07-7.43c-23.6-10.62-44.2-32.47-61.23-61.77l-11.23,4.26h0l.39-.15c14.2,25,28.78,42,44.28,53.14Z" transform="translate(-95.24 -287.93)"/><path id="_Path_127" data-name="&lt;Path&gt;" class="cls-9" d="M743,600.15c47.39,0,78.06-32.78,78.06-32.78a2.61,2.61,0,0,0-4,.29c-22.27,17.43-42.73,25-71.23,25.39a79.26,79.26,0,0,1-33.89-7.16l-6.07,7.43A100.08,100.08,0,0,0,743,600.15Z" transform="translate(-95.24 -287.93)"/><path id="_Path_128" data-name="&lt;Path&gt;" class="cls-10" d="M821.07,567.37S790.39,600.15,743,600.15c-22.07,0-41.52-6.24-58.86-18.78l-7.55,7.55c21.64,14.89,43,19.23,58.88,19.23,54.58,0,82.19-33.88,85.33-37C822.24,569.65,822,568.23,821.07,567.37Z" transform="translate(-95.24 -287.93)"/><path id="_Path_129" data-name="&lt;Path&gt;" class="cls-12" d="M639.86,528.23l-11.66,4.42c14.76,27,31.68,44.76,48.4,56.26l7.54-7.54C668.64,570.23,654.06,553.28,639.86,528.23Z" transform="translate(-95.24 -287.93)"/></g><g id="_Group_16" data-name="&lt;Group&gt;"><path id="_Compound_Path_23" data-name="&lt;Compound Path&gt;" class="cls-7" d="M746.92,504.88a2.88,2.88,0,0,1-.38,1.13l-.38,1.13a42.83,42.83,0,0,1-1.51,4.71q-1.7,5.65-2.83,10-3.39,11.5-3.58,17.52,0,8.48,4.52,8.48,4.14,0,4.15,2.26t-4.33,2.26H721.1l-4.15.19a3.64,3.64,0,0,1-1.88-.56,1.7,1.7,0,0,1-1.13-1.51,2.33,2.33,0,0,1,2.64-2.64q1.51,0,6-8.67,4.14-7.72,10.18-21.67,11.49-26.57,23.37-58.6l10.36-26.76a22.26,22.26,0,0,0,1.13-5.09,2.3,2.3,0,0,0-.56-1.7,2.33,2.33,0,0,0-1.32-.38,1.48,1.48,0,0,1-.94-.19c-.25-.12-.38-.57-.38-1.32q0-3,4.33-3h17.15q4,0,6-.19,2.45,0,2.45,2.26,0,2.45-1.13,2.45c-.38,0-.57.06-.57.19a3.79,3.79,0,0,0-.19,1.7q0,5.09,4.33,23.18,3.77,15.64,10,37.5,5.46,19.6,10.55,36,5.09,16.21,6.41,18.84a16.06,16.06,0,0,0,3.2,4.52,3.36,3.36,0,0,0,2.07.94c1.25,0,1.88.69,1.88,2.07a2.34,2.34,0,0,1-.75,1.7,4.47,4.47,0,0,1-2.83.75l-27.32.38a2.5,2.5,0,0,1-1.51-.56,2,2,0,0,1-.75-1.7,3.64,3.64,0,0,1,.57-1.88,1.63,1.63,0,0,1,1.32-.75q2.45,0,2.45-2.83,0-3.77-2.83-16.39-2.45-10.74-6.78-27.89-16,0-28.64.38l-11.12.56q-4.52.38-5.09.94Zm16-44.66q-4.52,11.31-7.54,19.22-3.77,10-5.28,14.89,1.7.57,12.44.57h18.65l9.61-.38-5.65-21.11-9.23-32.6q-.76-2.64-1.51-4.71a23.16,23.16,0,0,1-.75-2.64Z" transform="translate(-95.24 -287.93)"/><path id="_Path_130" data-name="&lt;Path&gt;" class="cls-10" d="M798.55,552.18a2.5,2.5,0,0,0,1.51.56l27.32-.38a4.47,4.47,0,0,0,2.83-.75,2.6,2.6,0,0,0,.6-.9L813.65,545l-15.59,6.55A1.77,1.77,0,0,0,798.55,552.18Z" transform="translate(-95.24 -287.93)"/><path id="_Path_131" data-name="&lt;Path&gt;" class="cls-10" d="M731,546.39l-16.45,5.26a2.85,2.85,0,0,0,.53.34,3.64,3.64,0,0,0,1.88.56l4.15-.19h21.48a6.62,6.62,0,0,0,3.42-.68Z" transform="translate(-95.24 -287.93)"/><path id="_Path_132" data-name="&lt;Path&gt;" class="cls-10" d="M745,498.23l2.65,4.39q.57-.57,5.09-.94l11.12-.56q12.62-.38,28.64-.38l7.49-3.85Z" transform="translate(-95.24 -287.93)"/><path id="_Path_133" data-name="&lt;Path&gt;" class="cls-8" d="M800,496.88l-7.49,3.85q4.33,17.15,6.78,27.89,2.83,12.63,2.83,16.39,0,2.83-2.45,2.83a1.63,1.63,0,0,0-1.32.75,3.64,3.64,0,0,0-.57,1.88,2.28,2.28,0,0,0,.26,1.11L813.65,545Z" transform="translate(-95.24 -287.93)"/><path id="_Path_134" data-name="&lt;Path&gt;" class="cls-9" d="M790.82,494.52l-9.61.38H762.56q-10.74,0-12.44-.57l-5.1,3.9,55-1.35Z" transform="translate(-95.24 -287.93)"/><path id="_Path_135" data-name="&lt;Path&gt;" class="cls-8" d="M781.24,427.58h-7.57v5.88l.66,2.34.1.3q.75,2.08,1.51,4.71l9.23,32.6,5.65,21.11,9.19,2.36Z" transform="translate(-95.24 -287.93)"/><path id="_Path_136" data-name="&lt;Path&gt;" class="cls-8" d="M764.83,422a2.86,2.86,0,0,0-.38,1.49c0,.75.12,1.2.38,1.32a1.48,1.48,0,0,0,.94.19,2.33,2.33,0,0,1,1.32.38,2.3,2.3,0,0,1,.56,1.7,22.26,22.26,0,0,1-1.13,5.09l-10.36,26.76q-7.72,20.83-15.27,39.32-4.07,10-8.09,19.28-6,13.95-10.18,21.67-4.52,8.67-6,8.67a2.33,2.33,0,0,0-2.64,2.64,1.46,1.46,0,0,0,.6,1.17L731,546.39l14-48.16,27.5-70.65Z" transform="translate(-95.24 -287.93)"/><path id="_Path_137" data-name="&lt;Path&gt;" class="cls-9" d="M792,420.28q-2.08.19-6,.19H768.78c-2,0-3.35.52-4,1.52l7.69,5.6h8.73l12.36-6.87A2.81,2.81,0,0,0,792,420.28Z" transform="translate(-95.24 -287.93)"/></g><g id="_Group_17" data-name="&lt;Group&gt;"><path id="_Path_138" data-name="&lt;Path&gt;" class="cls-7" d="M646.91,517.63q-3.81-6.52-7.87-14.12l-6.24-11.13q14.93-18.73,32.85-39.37,9.5-11.4,17.38-20.09,9-9.5,14.66-14.93,5.43-5.43,7.6-5.7a6.36,6.36,0,0,0,2.72-1.36,3.88,3.88,0,0,0,1.63-3,2.3,2.3,0,0,0-1.36-1.9,4.86,4.86,0,0,0-3.26-.54,58.25,58.25,0,0,1-6.24.27l-29.6-.27q-3.53,0-3.53,3.53a1.82,1.82,0,0,0,.81,1.63,3.38,3.38,0,0,0,1.63.81l1.9.81a3.44,3.44,0,0,1,1.36,1.9Q670.54,425,657,445.4q-5.7,8.69-13.58,19-6.79,9-15.2,19.28-9.51-17.37-20.91-40.19Q601,431,597.5,423.41q-3.81-8.69-3.53-9.77a6.37,6.37,0,0,1,1.63-1.09l1.36-.81a3.4,3.4,0,0,0,1.63-3q0-3.26-5.7-3.26-6.52.27-17.1.27l-21.18-.27a4.22,4.22,0,0,0-3.8,3.8q-.27,1.9,3.26,3a3.25,3.25,0,0,0,1.36.54l1.09.27a5.94,5.94,0,0,1,1.9,1.09l1.09,1.09q2.17,3,8.69,13.58,5.43,8.69,13.85,23.62,3.8,6,7.87,13.58l21.72,37.47q-4.07,5.16-9.5,12.76l-10,13.85q-6.52,9.23-10.32,14.12l-10,13.85q-11.4,14.66-19,22-9,9.23-14.12,9.23a3.36,3.36,0,0,0-1.9.54,6.9,6.9,0,0,0-1.09,3.26c.36,1.81,1,2.8,1.9,3l6.52-.27h27.7q4.07,0,4.07-3a3.37,3.37,0,0,0-2.44-3.53q1.9-8.69,16-33.4A453,453,0,0,1,616.78,513l11.43,19.64,22.46-8.52Z" transform="translate(-95.24 -287.93)"/><path id="_Path_139" data-name="&lt;Path&gt;" class="cls-9" d="M578.56,415.49l19.9-7.58c-.45-1.61-2.31-2.42-5.58-2.42q-6.52.27-17.1.27l-21.18-.27a3.35,3.35,0,0,0-2.72,1.36,4.1,4.1,0,0,0-.56.71Z" transform="translate(-95.24 -287.93)"/><path id="_Path_140" data-name="&lt;Path&gt;" class="cls-9" d="M709.64,407.93a2.3,2.3,0,0,0-1.36-1.9,4.86,4.86,0,0,0-3.26-.54,58.25,58.25,0,0,1-6.24.27l-29.6-.27c-1.93,0-3,.8-3.4,2.38l21.42,7.62,22.42-7.41S709.64,408,709.64,407.93Z" transform="translate(-95.24 -287.93)"/><path id="_Path_141" data-name="&lt;Path&gt;" class="cls-8" d="M622.61,498.48l-44-83-27.24-7.93a3.18,3.18,0,0,0-.53,1.74q-.27,1.9,3.26,3a3.25,3.25,0,0,0,1.36.54l1.09.27a5.94,5.94,0,0,1,1.9,1.09l1.09,1.09q2.17,3,8.69,13.58,5.43,8.69,13.85,23.62,3.8,6,7.87,13.58l21.72,37.47q-4.07,5.16-9.5,12.76l-10,13.85q-6.52,9.23-10.32,14.12l-10,13.85q-11.4,14.66-19,22-9,9.23-14.12,9.23a3.36,3.36,0,0,0-1.9.54,6.9,6.9,0,0,0-1.09,3.26,8.27,8.27,0,0,0,.38,1.34l24.64-8.11Z" transform="translate(-95.24 -287.93)"/><path id="_Path_142" data-name="&lt;Path&gt;" class="cls-8" d="M687.2,415.49l-21.42-7.62a5.22,5.22,0,0,0-.13,1.15,1.82,1.82,0,0,0,.81,1.63,3.38,3.38,0,0,0,1.63.81l1.9.81a3.44,3.44,0,0,1,1.36,1.9Q670.54,425,657,445.4q-5.7,8.69-13.58,19-6.79,9-15.2,19.28l-5.57,14.79Z" transform="translate(-95.24 -287.93)"/><polygon id="_Path_143" data-name="&lt;Path&gt;" class="cls-8" points="527.38 210.54 521.54 225.08 532.97 244.72 544.63 240.3 527.38 210.54"/><path id="_Path_144" data-name="&lt;Path&gt;" class="cls-10" d="M560.61,586.35,536,594.46c.37,1,.87,1.51,1.52,1.64l6.52-.27h27.7c2,0,3.24-.54,3.77-1.6Z" transform="translate(-95.24 -287.93)"/></g><g id="_Group_18" data-name="&lt;Group&gt;"><path id="_Path_145" data-name="&lt;Path&gt;" class="cls-7" d="M241.1,530.18c16-18.75,28.5-32.85,92.92-34.58l14.06-6.78-13.85-6.54C260,484.69,247.58,507,241.1,530.18Z" transform="translate(-95.24 -287.93)"/><path id="_Path_146" data-name="&lt;Path&gt;" class="cls-7" d="M516.3,476.64a2.66,2.66,0,0,0-1.36-.54,2.62,2.62,0,0,0-2.45,1.63l-.82,1.36a5.84,5.84,0,0,1-2.72,1.63,48.21,48.21,0,0,1-6.26,2.18q-10.07,2.18-26.13,2.18-11.43,0-21-.27s-5.22-.2-13.53-.49l-12.44,5.57L442,497.63c4.9-.54,12.25.24,22,.24A169,169,0,0,1,493.16,500q11.43,2.18,11.43,4.9a11.37,11.37,0,0,0-.27,2.72,4.22,4.22,0,0,0,3,.82q1.08,0,2.72-3.81,1.08-2.45,3.54-10.07,3.54-11.7,4.08-16.6C517.66,477.45,517.21,477,516.3,476.64Z" transform="translate(-95.24 -287.93)"/><path id="_Path_147" data-name="&lt;Path&gt;" class="cls-7" d="M360.89,482.14l-12.81,6.67,12.61,6.84,54.62,1,14.31-6.79-14.31-6.45C397.74,482.89,377.41,482.35,360.89,482.14Z" transform="translate(-95.24 -287.93)"/><path id="_Path_148" data-name="&lt;Path&gt;" class="cls-10" d="M267.47,501.68c-11,6.55-16.72,10.72-26.37,28.5,16-18.75,28.5-32.85,92.92-34.58l14.06-6.78C329.66,488.81,287.19,489.89,267.47,501.68Z" transform="translate(-95.24 -287.93)"/><path id="_Path_149" data-name="&lt;Path&gt;" class="cls-9" d="M241.1,530.18c9.65-17.79,15.41-22,26.37-28.5,19.72-11.79,62.2-12.86,80.61-12.86l-13.85-6.54C260,484.69,247.58,507,241.1,530.18Z" transform="translate(-95.24 -287.93)"/><path id="_Path_150" data-name="&lt;Path&gt;" class="cls-9" d="M360.89,482.14l-12.81,6.67,81.54,1.07-14.31-6.45C397.74,482.89,377.41,482.35,360.89,482.14Z" transform="translate(-95.24 -287.93)"/><polygon id="_Path_151" data-name="&lt;Path&gt;" class="cls-10" points="265.45 207.72 320.08 208.75 334.39 201.95 252.84 200.88 265.45 207.72"/><path id="_Path_152" data-name="&lt;Path&gt;" class="cls-10" d="M464,497.87A169,169,0,0,1,493.16,500q11.43,2.18,11.43,4.9a11.37,11.37,0,0,0-.27,2.72,4,4,0,0,0,2.69.8l-.22-16.33-77.17-2.25L442,497.63C446.89,497.09,454.24,497.87,464,497.87Z" transform="translate(-95.24 -287.93)"/><path id="_Path_153" data-name="&lt;Path&gt;" class="cls-9" d="M516.3,476.64l-3,0a3.17,3.17,0,0,0-.85,1.07l-.82,1.36a5.84,5.84,0,0,1-2.72,1.63,48.21,48.21,0,0,1-6.26,2.18q-10.07,2.18-26.13,2.18-11.43,0-21-.27s-5.22-.2-13.53-.49l-12.44,5.57,77.17,2.25Z" transform="translate(-95.24 -287.93)"/></g><g id="_Group_19" data-name="&lt;Group&gt;"><path id="_Path_154" data-name="&lt;Path&gt;" class="cls-7" d="M409.87,584.87q-1.09,4.36-5.72,4.36-4.08,0-4.08,4.36,0,2.72,2.45,2.72h9l1.91-.27h65.87l41.38.82q3.27-2.45,7.89-14.16A108.81,108.81,0,0,0,534.27,565q.54-1.08-2.72-1.36-3-.54-3.27,1.09a13.57,13.57,0,0,1-1.63,4.08,15.54,15.54,0,0,1-3.81,4.36q-16.06,9.8-45.19,9.8-26.95,0-33.75-7.08-3.27-3.53-2.72-20.14l.82-53.9v-4.22l-12.36-7.74-14.31,6.79Q415.31,565.55,409.87,584.87Z" transform="translate(-95.24 -287.93)"/><path id="_Path_155" data-name="&lt;Path&gt;" class="cls-7" d="M443.62,431.35a142.94,142.94,0,0,1,1.63-14.43l6-.82a89.67,89.67,0,0,1,9.25-.54h6q21.23,0,36.75,4.63,17.15,5.17,17.15,13.34A2.61,2.61,0,0,0,522,435.7a4.43,4.43,0,0,0,2.45.54q.27,0,2.18-5.17,1.63-4.63,3.54-11.43,2.18-7.08,3.27-12,1.63-5.72,1.36-6.26,0-2.45-4.08-.54-15.25,4.63-71.59,4.63H445.53v-3q-9.53,0-22.59,1.09-10.35.82-18,1.9-3,.28-3.54,2.18a3,3,0,0,0-.27,1.36v1.36c0,1.45.36,2.18,1.09,2.18l4.36-.27q8.71,0,8.71,57.44v13.7l14.31,6.45,12.44-5.57Z" transform="translate(-95.24 -287.93)"/><path id="_Path_156" data-name="&lt;Path&gt;" class="cls-10" d="M477.53,590c-22.51,0-49.09-3.64-49.09-3.64L400.09,594a2.2,2.2,0,0,0,2.43,2.3h9l1.91-.27h65.87l41.38.82-3-10.5A220.16,220.16,0,0,1,477.53,590Z" transform="translate(-95.24 -287.93)"/><path id="_Path_157" data-name="&lt;Path&gt;" class="cls-10" d="M521,415.49s-14.36-5.77-46.09-5.77-46.73,5.77-46.73,5.77l-.08,0,.08.69,17,.77,6-.82a89.67,89.67,0,0,1,9.25-.54h6q21.23,0,36.75,4.63,17.15,5.17,17.15,13.34A2.61,2.61,0,0,0,522,435.7a4.43,4.43,0,0,0,2.45.54Z" transform="translate(-95.24 -287.93)"/><path id="_Path_158" data-name="&lt;Path&gt;" class="cls-9" d="M530.73,400.86q-15.25,4.63-71.59,4.63H445.53v-3q-9.53,0-22.59,1.09-10.35.82-18,1.9a6.42,6.42,0,0,0-1.84.41l25.1,9.59s15-5.77,46.73-5.77S521,415.49,521,415.49l13.68-14.67C534.41,399.76,533.08,399.77,530.73,400.86Z" transform="translate(-95.24 -287.93)"/><path id="_Path_159" data-name="&lt;Path&gt;" class="cls-9" d="M532.72,563.79c-.34-.06-.72-.11-1.17-.15q-3-.54-3.27,1.09a13.57,13.57,0,0,1-1.63,4.08,15.54,15.54,0,0,1-3.81,4.36q-16.06,9.8-45.19,9.8-26.95,0-33.75-7.08l-15.45,10.46S455,590,477.53,590a220.16,220.16,0,0,0,40.13-3.64Z" transform="translate(-95.24 -287.93)"/><path id="_Path_160" data-name="&lt;Path&gt;" class="cls-8" d="M403.13,405.9a2.68,2.68,0,0,0-1.7,1.77,3,3,0,0,0-.27,1.36v1.36c0,1.45.36,2.18,1.09,2.18l4.36-.27q8.71,0,8.71,57.44v13.7l14.31,6.45-1.39-74.4Z" transform="translate(-95.24 -287.93)"/><path id="_Path_161" data-name="&lt;Path&gt;" class="cls-8" d="M429.63,489.89l-14.31,6.79q0,68.87-5.44,88.19-1.09,4.36-5.72,4.36-4.08,0-4.08,4.36c0,.15,0,.28,0,.42l28.35-7.65Z" transform="translate(-95.24 -287.93)"/></g><g id="_Group_20" data-name="&lt;Group&gt;"><path id="_Path_162" data-name="&lt;Path&gt;" class="cls-7" d="M374.21,589.5q-10.62,0-12.79-8.44-.55-1.63-.82-9.8V510.83c0-4.64,0-9.76.09-15.18l-12.61-6.84L334,495.59l-.09,4.62q-.55,35.39-1.63,56.35-.82,19.33-2.18,25.86-1.09,5.45-3,6.53a4.81,4.81,0,0,1-2.18.54h-2.72Q319,589.5,319,593q0,3.27,6,3.27H329a.81.81,0,0,0,.54-.27h43q4.63,0,4.63-3.54A2.65,2.65,0,0,0,374.21,589.5Z" transform="translate(-95.24 -287.93)"/><path id="_Path_163" data-name="&lt;Path&gt;" class="cls-7" d="M362,454.76q1.36-28.58,2.18-33.75,1.36-6.53,3-8.17A6.08,6.08,0,0,1,369,412h2.45a4.78,4.78,0,0,0,3.54-1.36,4.4,4.4,0,0,0,.82-2.72,3.09,3.09,0,0,0-.27-1.36,2.93,2.93,0,0,0-2.72-1.36l-38.92.27q-8.44,0-11.16-.27a3.18,3.18,0,0,0-2.72,3.54q0,2.73,4.08,3.27l3,.27a6.47,6.47,0,0,1,3,1.36q3,2.18,3.54,9l.54,4.36q.27,3.27.27,9.53c0,8.15-.08,23.45-.24,45.75l13.85,6.54,12.81-6.67Z" transform="translate(-95.24 -287.93)"/><path id="_Path_164" data-name="&lt;Path&gt;" class="cls-8" d="M333.93,500.22q-.55,35.39-1.63,56.35-.82,19.33-2.18,25.86-1.09,5.45-3,6.53a4.81,4.81,0,0,1-2.18.54h-2.72Q319,589.5,319,593q0,3.27,6,3.27H329a.81.81,0,0,0,.54-.27h5.9l12.6-9.78V488.81L334,495.59Z" transform="translate(-95.24 -287.93)"/><path id="_Path_165" data-name="&lt;Path&gt;" class="cls-8" d="M320,408.75q0,2.73,4.08,3.27l3,.27a6.47,6.47,0,0,1,3,1.36q3,2.18,3.54,9l.54,4.36q.27,3.27.27,9.53c0,8.15-.08,23.45-.24,45.75l13.85,6.54V415.49l-25.32-10.27A3.18,3.18,0,0,0,320,408.75Z" transform="translate(-95.24 -287.93)"/><path id="_Path_166" data-name="&lt;Path&gt;" class="cls-9" d="M372.85,405.22l-38.92.27q-8.44,0-11.16-.27a3.37,3.37,0,0,0-1.86,1l27.18,9.3,27.52-8.84s0-.05,0-.07A2.93,2.93,0,0,0,372.85,405.22Z" transform="translate(-95.24 -287.93)"/><path id="_Path_167" data-name="&lt;Path&gt;" class="cls-10" d="M376.83,594.19l-28.75-7.94-28.22,8.82c.95.82,2.64,1.23,5.09,1.23H329a.81.81,0,0,0,.54-.27h43C374.8,596,376.21,595.41,376.83,594.19Z" transform="translate(-95.24 -287.93)"/></g></g></g><g id="_Group_21" data-name="&lt;Group&gt;"><polygon id="_Path_168" data-name="&lt;Path&gt;" class="cls-3" points="36.13 163.49 22.66 153.49 22.66 104.79 36.13 104.79 36.13 163.49"/><path id="_Compound_Path_24" data-name="&lt;Compound Path&gt;" d="M134.19,457l-19.12-14.19V389.9h19.12Zm-13.47-17,7.82,5.81V395.54h-7.82Z" transform="translate(-95.24 -287.93)"/></g><g id="_Group_22" data-name="&lt;Group&gt;"><polygon id="_Path_169" data-name="&lt;Path&gt;" class="cls-3" points="36.14 261.57 22.67 271.57 22.67 320.27 36.14 320.27 36.14 261.57"/><path id="_Compound_Path_25" data-name="&lt;Compound Path&gt;" d="M134.2,611H115.08V558.09L134.2,543.9Zm-13.47-5.65h7.82V555.12l-7.82,5.81Z" transform="translate(-95.24 -287.93)"/></g><g id="_Group_23" data-name="&lt;Group&gt;"><polygon id="_Path_170" data-name="&lt;Path&gt;" class="cls-3" points="162.16 387.59 152.16 401.06 103.46 401.06 103.46 387.59 162.16 387.59"/><path id="_Compound_Path_26" data-name="&lt;Compound Path&gt;" d="M248.81,691.82H195.87V672.7H263Zm-47.3-5.65H246l5.81-7.82H201.52Z" transform="translate(-95.24 -287.93)"/></g><g id="_Group_24" data-name="&lt;Group&gt;"><polygon id="_Path_171" data-name="&lt;Path&gt;" class="cls-3" points="162.16 37.45 152.16 23.98 103.46 23.98 103.46 37.45 162.16 37.45"/><path id="_Compound_Path_27" data-name="&lt;Compound Path&gt;" d="M263,328.2H195.87V309.09h52.94Zm-61.49-5.65h50.26L246,314.73H201.52Z" transform="translate(-95.24 -287.93)"/></g></svg>