<?xml version="1.0" encoding="utf-8"?>
<!-- Generator: Adobe Illustrator 22.0.0, SVG Export Plug-In . SVG Version: 6.00 Build 0)  -->
<svg version="1.1" id="Layer_1" xmlns="http://www.w3.org/2000/svg" xmlns:xlink="http://www.w3.org/1999/xlink" x="0px" y="0px"
	 viewBox="0 0 622 110" style="enable-background:new 0 0 622 110;" xml:space="preserve">
<g id="XMLID_1_">
	<path id="XMLID_18_" d="M130.4,25.4c-22.6,0-40.9,18.2-40.9,40.9c0,22.6,18.2,40.9,40.9,40.9c22.7,0,40.9-18.2,40.9-40.9
		C171.2,43.7,153,25.4,130.4,25.4z M130.4,100.3c-11.4,0-19.6-14.3-19.6-34c0-20.4,7.9-34,19.6-34c11.4,0,19.6,14.3,19.6,34
		C150,86.6,142.1,100.3,130.4,100.3z"/>
	<path id="XMLID_22_" d="M224.6,25.1c-6.5,0-16.4,4.7-21.3,24.2c1.5,0.9,2.4,0.6,3.4-0.8c2.3-4.6,3.6-7.3,6.7-8.3
		c1.4,4.8,5.9,8.3,11.2,8.3c6.5,0,11.7-5.2,11.7-11.7C236.3,30.3,231.1,25.1,224.6,25.1z"/>
	<path id="XMLID_23_" d="M617.8,35c-1-6.4-7-10.6-13.5-9.4c-6.4,1-10.6,7.1-9.4,13.5c0.9,5.5,5.6,9.5,11,9.6
		c0,5.9-5.7,18.4-9.5,22.9c0.6,1.4,4.1,1.4,5.2,0C616.1,52.7,619,41.3,617.8,35z"/>
	<path id="XMLID_24_" d="M174.6,28.1v4.5c6.9,0.9,10.6,4.3,10.6,26.4v14c0,22.2-3.8,25.5-10.6,26.4v4.5h10.6h16.7V28.1h-16.7H174.6z
		"/>
	<path id="XMLID_25_" d="M31.8,60.4V3.8H13.5H2.9v4.5c6.9,0.9,10.6,4.3,10.6,31v29.2c0,26.7-3.8,30.1-10.6,31v4.5h10.6h18.2V67.5
		L62,104.1h26L42.9,48.8L31.8,60.4z"/>
	<path id="XMLID_26_" d="M50.8,46.7c5.7-5.7,8.6-7.6,12.6-8c0.9,5.6,5.7,9.8,11.5,9.8c6.5,0,11.7-5.2,11.7-11.7s-5.2-11.7-11.7-11.7
		s-13.1,3.2-29,21C47,47.9,49.1,48.3,50.8,46.7z"/>
	<path id="XMLID_29_" d="M439.1,25.4c-22.6,0-40.9,18.2-40.9,40.9c0,22.6,18.2,40.9,40.9,40.9c22.7,0,40.9-18.2,40.9-40.9
		C480,43.7,461.7,25.4,439.1,25.4z M439.1,100.3c-11.4,0-19.6-14.3-19.6-34c0-20.4,7.9-34,19.6-34c11.4,0,19.6,14.3,19.6,34
		C458.7,86.6,450.8,100.3,439.1,100.3z"/>
	<path id="XMLID_30_" d="M362.5,3.8v4.5c6.9,0.9,10.6,4.3,10.6,31v29.2c0,26.7-3.8,30.1-10.6,31v4.5h10.6h17.5V3.8h-17.5H362.5z"/>
	<path id="XMLID_31_" d="M564.9,28.1h-6.1h-15h-7.6v4.5c5.1,0.7,8.8,2.6,14.2,11.6l-19.9,38.1l-24.7-54.2h-9.5h-11.8H477v4.5
		c6.7,0.8,10.9,3.8,19.8,22.3v-0.1l1.9,4.2c-0.7-1.5-1.3-2.8-1.9-4.1l22.3,49.1l0.3-0.5l-0.3,0.7h6.1l28.4-54.3
		c0.8,1.5,1.6,3.2,2.5,5l22.3,49.1l6.1,0.1l8.7-16.1l-27.9-60L564.9,28.1L564.9,28.1z"/>
	<path id="XMLID_34_" d="M279.3,25.4c-22.6,0-40.9,18.2-40.9,40.9c0,22.6,18.2,40.9,40.9,40.9c14.4,0,27.5-8.2,33-20.8
		c0.6-1.4,0.1-2.9-1.2-3.5c-1.2-0.6-2.3,0.3-3.4,2c-8.2,12.8-17.6,15.9-26,15.9c-14.4,0-22-12.9-22-34.5c0-1,0-2,0.1-3h50.7
		c3,0,5-1.5,4.7-6.4C314,42,301.3,25.4,279.3,25.4z M292,57.2h-31.8c2-15.2,9.2-24.9,19-24.9c10.5,0,16.3,11.4,16.6,19
		C296.1,55.8,296.4,57.2,292,57.2z"/>
	<path id="XMLID_35_" d="M320.7,3.8v4.5c6.9,0.9,10.6,4.3,10.6,31v29.2c0,26.7-3.8,30.1-10.6,31v4.5h10.6h17.5V3.8h-17.5H320.7z"/>
</g>
</svg>
