<?xml version="1.0" encoding="utf-8"?>
<!-- Generator: Adobe Illustrator 22.0.0, SVG Export Plug-In . SVG Version: 6.00 Build 0)  -->
<svg version="1.1" id="Layer_1" xmlns="http://www.w3.org/2000/svg" xmlns:xlink="http://www.w3.org/1999/xlink" x="0px" y="0px"
	 viewBox="0 0 2000 357" style="enable-background:new 0 0 2000 357;" xml:space="preserve">
<g>
	<path d="M377.4,344.6v4.9H239.9v-4.9h30.7c9.7,0,14.7-4.9,14.7-14.7V45.2c0-11.2-3.9-12.2-7.3-1.5l-80.5,258h-41.9l-97-258
		c-3.5-8.8-10.7-7.3-10.7,1.5V330c0,9.7,4.9,14.7,14.7,14.7h28.7v4.9H-0.5v-4.9h28.7c9.7,0,14.7-4.9,14.7-14.7V28.6
		C42.9,17.9,38,13,28.2,13H-0.5V8.1h45.9c27.4,0,53.6,19.5,83.9,97.5l63.4,164.8c3.9,10.2,6.3,10.2,9.7,0L282.9,7.9h83.9v4.9h-58.6
		c-5.4,0-5.4,3-0.5,6.8c14.2,10.7,23.9,36.1,23.9,85.8v224.3c0,9.7,4.9,14.7,14.7,14.7h31.1V344.6z"/>
	<path d="M416.4,178.8c0-98.5,43.4-178,144.3-178c100,0,143.4,79.5,143.4,178s-43.4,178-143.4,178
		C459.8,356.8,416.4,277.3,416.4,178.8z M654.9,178.8c0-95.5-21.4-173.2-94.2-173.2c-73.6,0-95.2,77.5-95.2,173.2
		C465.6,274,487,352,560.7,352C633.5,352,654.9,274,654.9,178.8z"/>
	<path d="M1045.5,183.2c0,118.5-72.7,166.3-181.4,166.3H753.9v-4.9h30.7c9.7,0,14.7-4.9,14.7-14.7V27.7c0-9.7-4.9-14.7-14.7-14.7
		h-31.7V8.1H870C990.9,8.1,1045.5,74,1045.5,183.2z M999.2,177.3C999.2,55.9,962.1,13,865.1,13h-34.1c-8.3,0-10.2,4.4-4.4,11.2
		c11.7,12.7,19,37.6,19,81.5V330c0,9.7,4.9,14.7,14.7,14.7h3.9C972.8,344.6,999.2,274.4,999.2,177.3z"/>
	<path d="M1650.8,278.8v51.2c0,9.7-4.9,14.7-14.7,14.7h-104.4c-9.7,0-14.7-4.9-14.7-14.7V105.6c0-44.4-7.8-69.3-19.5-82
		c-5.8-6.3-3-10.7,5.4-10.7h61.5V7.9h-261v4.9h24.4c24.4,0,46.3,15.2,46.3,92.7v110.7c0,81.5-40.4,135.6-107.7,135.6
		c-75.1,0-86.8-68.3-86.8-148.8v-97.5c0-77.5-20.5-97.5-46.3-97.5h-46.3V13h31.7c9.7,0,14.7,4.9,14.7,14.7v170.7
		c0,83.9,33.7,158.5,133.1,158.5c71.2,0,112.7-55.6,112.7-140.4V27.7c0-9.7,4.9-14.7,14.7-14.7h62.4c9.7,0,14.7,4.9,14.7,14.7V330
		c0,9.7-4.9,14.7-14.7,14.7h-30.7v4.9h230.1v-70.8h-4.9V278.8z"/>
	<path d="M2000,344.6v4.9h-139v-4.9h30.2c9.7,0,13.2-4.9,10.2-14.7l-26.9-87.8c-3-10.2-9.2-14.7-19-14.7h-86.3
		c-9.7,0-15.7,4.4-18.5,14.7l-23.9,87.8c-3,10.2,1,14.7,10.7,14.7h30.2v4.9h-97.5v-4.9h33.2c9.7,0,15.7-4.4,18.5-14.7l82-302.4
		c3-10.2-1-14.7-10.7-14.7h-39.9V7.9h98l96.5,321.9c3,10.2,9.2,14.7,19,14.7h33.3V344.6z M1853.2,222.7c10.2,0,13.7-4.4,10.7-14.7
		l-31.2-102.4c-12.2-39.9-13.7-65.3-7.8-80c3.5-8.3,4.4-12.7-6.8-12.7c-4.4,0-6.3,4.4-9.2,14.7L1760.1,208c-3,10.2,1,14.7,10.7,14.7
		H1853.2z"/>
</g>
</svg>
