<svg id="ARA" xmlns="http://www.w3.org/2000/svg" viewBox="0 0 1006.96176 1254.72485"><defs><style>.cls-1{fill:#004479;}</style></defs><title>MYARA</title><g id="_Group_" data-name="&lt;Group&gt;"><path id="_Compound_Path_" data-name="&lt;Compound Path&gt;" class="cls-1" d="M815.11517,1352.25879l-17.17382-30.04492h3.99609l14.94531,26.31836,15.36817-26.31836h4.03418l-17.75,30.04492v22.39941h-3.41993Z" transform="translate(-52.75197 -130.92163)"/><path id="_Compound_Path_2" data-name="&lt;Compound Path&gt;" class="cls-1" d="M766.0058,1349.877l17.17383,24.78125h-4.14942L762.12494,1349.877h-1.53613v24.78125h-3.41992v-52.44433h7.4541a28.22673,28.22673,0,0,1,6.51172.61523,13.87738,13.87738,0,0,1,4.59179,2.03613q5.26319,3.68848,5.26367,11.25684,0,8.56787-6.64746,12.06445Q771.65326,1349.60743,766.0058,1349.877Zm-5.417-3.1123H765.621q5.41846,0,8.376-2.459a10.113,10.113,0,0,0,3.53516-8.26074,11.96841,11.96841,0,0,0-1.249-5.49414,8.11381,8.11381,0,0,0-3.40039-3.61133,16.81743,16.81743,0,0,0-7.99121-1.57519h-4.30273Z" transform="translate(-52.75197 -130.92163)"/><path id="_Compound_Path_3" data-name="&lt;Compound Path&gt;" class="cls-1" d="M723.96674,1322.21387v49.29394h13.25488v3.15039H720.54681v-52.44433Z" transform="translate(-52.75197 -130.92163)"/><path id="_Compound_Path_4" data-name="&lt;Compound Path&gt;" class="cls-1" d="M697.44818,1325.36426h-21.707v18.98047h21.169v3.15039h-21.169v24.01269h21.707v3.15039H672.32123v-52.44433h25.12695Z" transform="translate(-52.75197 -130.92163)"/><path id="_Compound_Path_5" data-name="&lt;Compound Path&gt;" class="cls-1" d="M581.06439,1322.21387l14.292,44.376,19.01855-47.21875,17.75,47.21875,16.36719-44.376H652.373l-20.248,54.44238-17.78906-47.60352-19.47852,47.60352-17.63574-54.44238Z" transform="translate(-52.75197 -130.92163)"/><path id="_Compound_Path_6" data-name="&lt;Compound Path&gt;" class="cls-1" d="M560.15521,1325.36426H538.44769v18.98047h21.16944v3.15039H538.44769v24.01269h21.70752v3.15039H535.02826v-52.44433h25.12695Z" transform="translate(-52.75197 -130.92163)"/><path id="_Compound_Path_7" data-name="&lt;Compound Path&gt;" class="cls-1" d="M509.04828,1322.21387v52.3291q0,5.0332-1.76709,7.56933-2.42065,3.5332-7.33838,3.53418-5.95605,0-8.875-5.68652l2.49707-1.88184q2.34375,4.3799,6.53174,4.37989,5.53272,0,5.53223-7.915v-52.3291Z" transform="translate(-52.75197 -130.92163)"/><path id="_Compound_Path_8" data-name="&lt;Compound Path&gt;" class="cls-1" d="M447.791,1325.36426H426.083v18.98047h21.16992v3.15039H426.083v24.01269h21.708v3.15039H422.66351v-52.44433H447.791Z" transform="translate(-52.75197 -130.92163)"/><path id="_Compound_Path_9" data-name="&lt;Compound Path&gt;" class="cls-1" d="M349.27191,1374.6582v-53.0205l43.9917,46.10449v-45.52832h3.41944v53.78906l-43.9917-46.10449v44.75976Z" transform="translate(-52.75197 -130.92163)"/><path id="_Compound_Path_10" data-name="&lt;Compound Path&gt;" class="cls-1" d="M323.33051,1322.21387v52.44433h-3.41944v-52.44433Z" transform="translate(-52.75197 -130.92163)"/><path id="_Compound_Path_11" data-name="&lt;Compound Path&gt;" class="cls-1" d="M297.3891,1325.36426H279.6v18.98047h17.251v3.15039H279.6v27.16308H276.1806v-52.44433h21.2085Z" transform="translate(-52.75197 -130.92163)"/></g><g id="_Group_2" data-name="&lt;Group&gt;"><circle id="_Path_" data-name="&lt;Path&gt;" class="cls-1" cx="826.78051" cy="189.5" r="24.5"/><path id="_Compound_Path_12" data-name="&lt;Compound Path&gt;" class="cls-1" d="M988.03248,335.92163c-62.27435,41.68994-118.63214,82.81726-170.82678,125.28619a300.48084,300.48084,0,0,0,1.82684-32.95294c0-164.21264-133.12072-297.33325-297.33337-297.33325S224.36579,264.04224,224.36579,428.25488,357.48652,725.58826,521.69917,725.58826a300.21849,300.21849,0,0,0,37.34454-2.32886c-42.04986,53.2088-83.16937,111.14532-125.01123,175.66223.75,1.75,5.07038,4.47211,6,3A1870.90653,1870.90653,0,0,1,569.11641,721.80835c127.0299-20.361,227.18267-121.16968,246.52709-248.53638a1705.70779,1705.70779,0,0,1,167.389-121.35034C987.28248,343.85913,988.40748,339.73413,988.03248,335.92163Zm-468.49994,382c-158.78186,0-287.5-128.71814-287.5-287.5s128.71814-287.5,287.5-287.5,287.5,128.71814,287.5,287.5a289.80529,289.80529,0,0,1-3.00805,41.60657c-88.129,73.08771-164.46875,150.5979-237.7052,242.08319A289.42722,289.42722,0,0,1,519.53254,717.92163Zm57.46094-5.749A1741.58,1741.58,0,0,1,801.89405,484.69629,287.80372,287.80372,0,0,1,576.99348,712.17267Z" transform="translate(-52.75197 -130.92163)"/></g><g id="_Group_3" data-name="&lt;Group&gt;"><path id="_Path_2" data-name="&lt;Path&gt;" class="cls-1" d="M275.56246,1179.64943l-7.59489-177.21376a10.66594,10.66594,0,0,1,10.45684-9.42575h11.11832V987h-35.759l-75.93208,192.58133L90.91493,987H61.16584v6.00992H72.2842a10.66594,10.66594,0,0,1,10.4568,9.42555l-7.75234,178.38439a10.647,10.647,0,0,1-10.51736,10.51736H52.752v6.00992h51.98578v-6.00992H93.01841a10.666,10.666,0,0,1-10.45683-9.42575l6.63685-154.85961,81.64842,170.29528h15.02479l-4.01-8.88291,72.6586-184.279,8.27835,193.16192h35.759v-6.00992H286.83828C280.98731,1191.33722,276.43484,1187.19749,275.56246,1179.64943Z" transform="translate(-52.75197 -130.92163)"/><path id="_Path_3" data-name="&lt;Path&gt;" class="cls-1" d="M466.60773,1007.28457c3.60588-7.45435,8.9958-14.27465,17.05537-14.27465h8.71437V987H438.88921v6.00992h11.71934c8.01563,0,11.38993,4.3658,8.57412,11.534l-48.862,103.8613-48.06-102.77439.00208-.00016c-3.606-7.5124,0-12.6208,8.41387-12.6208H376.386V987H322.59728v6.00992h8.71437c7.71721,0,12.44135,5.71194,15.98761,12.73427l53.12645,113.474v61.60166a10.647,10.647,0,0,1-10.51735,10.51736H378.189v6.00992h57.9957v-6.00992H424.46539a10.647,10.647,0,0,1-10.51736-10.51736V1119.2182Z" transform="translate(-52.75197 -130.92163)"/><path id="_Compound_Path_13" data-name="&lt;Compound Path&gt;" class="cls-1" d="M1050.99936,1191.33722c-7.01206,0-11.10508-5.16347-13.83326-11.41467L963.85554,987H948.83075l3.14928,8.2876-70.22209,184.10286c-2.72712,6.48764-6.851,11.94676-14.06109,11.94676h-8.71437v6.00992h53.48825v-6.00992H900.7514c-8.3416,0-12.54422-5.3177-9.98046-12.72955l22.19434-58.18749h86.56514l22.03768,57.9939-.01733.00179c2.70446,7.5124-1.50248,12.92135-9.91639,12.92135H1005.925v6.00992h53.78876v-6.00992Zm-135.16863-78.42944L956.329,1006.73239l40.34666,106.17539Z" transform="translate(-52.75197 -130.92163)"/><path id="_Compound_Path_14" data-name="&lt;Compound Path&gt;" class="cls-1" d="M822.923,1185.6278l-58.5967-76.927c-6.00992,0-12.62085-2.404-15.62581-6.00991h16.52728a57.84566,57.84566,0,0,0,0-115.69093H703.02511v6.00992h11.71933a10.647,10.647,0,0,1,10.51736,10.51736v177.29258a10.647,10.647,0,0,1-10.51736,10.51736H703.02511v6.00992H761.0208v-6.00992H749.30147a10.647,10.647,0,0,1-10.51736-10.51736v-78.12893h5.10845l72.119,94.65621h25.24165v-6.00992h-5.70942C828.93289,1191.33722,825.92793,1189.53423,822.923,1185.6278Zm-84.13886-90.44927V994.5124h26.44363c27.94614,0,44.17291,22.23669,44.17291,50.18279s-16.52727,50.48334-44.17291,50.48334Z" transform="translate(-52.75197 -130.92163)"/><path id="_Compound_Path_15" data-name="&lt;Compound Path&gt;" class="cls-1" d="M656.73811,1179.9221,583.42771,987H568.40292l3.14928,8.2876-70.22168,184.10188c-2.72716,6.488-6.851,11.94774-14.0615,11.94774h-8.71437v6.00992H532.043v-6.00992H520.32357c-8.3416,0-12.54422-5.3177-9.98046-12.72955l22.19434-58.18749H619.1026l22.03767,57.9939-.01733.00179c2.70446,7.5124-1.50248,12.92135-9.91634,12.92135h-5.70946v6.00992h53.7888v-6.00992h-8.71441C663.55926,1191.33722,659.46629,1186.1735,656.73811,1179.9221ZM535.4029,1112.90778l40.49831-106.17539,40.34666,106.17539Z" transform="translate(-52.75197 -130.92163)"/></g></svg>