<?xml version="1.0" encoding="utf-8"?>
<svg version="1.1" id="Layer_1" xmlns="http://www.w3.org/2000/svg" xmlns:xlink="http://www.w3.org/1999/xlink" x="0px" y="0px"
	 viewBox="0 0 1200 1200" style="enable-background:new 0 0 1200 1200;" xml:space="preserve">
<style type="text/css">
	.st0{fill:#222222;}
</style>
<path class="st0" d="M156.4,397h46.5c7,141.9,52.3,154.7,52.3,244.2c0,62.8-38.4,84.9-46.5,104.7h-52.3c7-39.5,52.3-53.5,52.3-105.8
	C208.7,579.6,156.4,527.2,156.4,397z M572.7,397h46.5c11.6,31.4,52.3,53.5,52.3,116.3c0,69.8-46.5,90.7-46.5,232.6h-52.3
	c0-130.2,53.5-186,53.5-234.9C626.2,452.8,576.2,438.9,572.7,397z M950.6,658.6h53.5v-55.8h37.2v143h-37.2v-58.1h-53.5v58.1h-37.2
	v-143h37.2V658.6z M821.5,634.2v111.6h-37.2V634.2h-47.7v-31.4H868v31.4H821.5z M1041.3,541.2h-37.2V397h37.2V541.2z M770.3,397
	l24.4,93l31.4-93h29.1l30.2,93l25.6-93h38.4l-43,144.2h-37.2l-29.1-83.7l-27.9,83.7h-38.4L732,397H770.3z M433.1,397h46.5
	c7,47.7,52.3,88.4,52.3,151.2c0,67.4-46.5,87.2-46.5,197.7v310.5h-52.3V745.8c0-117.4,53.5-139.5,53.5-204.7
	C486.6,494.7,433.1,458.6,433.1,397z M295.9,397h46.5c4.7,90.7,52.3,115.1,52.3,184.9c0,73.3-47.7,105.8-50,164h-48.8
	c2.3-75.6,53.5-105.8,53.5-155.8C349.4,517.9,295.9,509.8,295.9,397z M925,928.4l-84.9-109.3h65.1l53.5,69.8l53.5-69.8h67.4
	l-88.4,109.3l102.3,129.1h-65.1l-69.8-89.5l-72.1,89.5h-67.4L925,928.4z M734.3,906.3c-8.1-29.1-26.7-44.2-55.8-44.2
	c-29.1,0-47.7,18.6-54.7,44.2H734.3z M790.1,951.6H620.3c2.3,34.9,20.9,62.8,61.6,62.8c27.9,0,41.9-10.5,64-45.3l46.5,25.6
	c-24.4,44.2-59.3,69.8-111.6,69.8c-73.3,0-118.6-52.3-118.6-125.6c0-70.9,38.4-125.6,115.1-125.6c73.3,0,112.8,48.8,112.8,124.4
	V951.6z M163.4,937.7c0,44.2,25.6,76.7,66.3,76.7c38.4,0,67.4-29.1,67.4-75.6c0-45.3-25.6-76.7-67.4-76.7
	C190.1,862.1,163.4,897,163.4,937.7z M293.6,819.1h52.3v238.4h-52.3v-25.6c-22.1,22.1-46.5,32.6-72.1,32.6c-65.1,0-114-50-114-126.7
	c0-66.3,40.7-124.4,111.6-124.4c27.9,0,52.3,10.5,74.4,33.7V819.1z M945.9,230.7c0,33.7,19.8,60.5,50,60.5
	c33.7,0,52.3-25.6,52.3-59.3c0-29.1-16.3-58.1-51.2-58.1C965.7,173.7,945.9,198.2,945.9,230.7z M1045.9,140h41.9v183.7h-41.9V304
	c-17.4,16.3-36,24.4-55.8,24.4c-52.3,0-87.2-43-87.2-97.7c0-53.5,36-95.3,86-95.3c20.9,0,39.5,9.3,57,26.7V140z M704.1,140h41.9
	v17.4c15.1-15.1,31.4-22.1,50-22.1c46.5,0,65.1,27.9,65.1,75.6v112.8h-41.9V221.4c0-31.4-7-47.7-34.9-47.7
	c-31.4,0-38.4,24.4-38.4,61.6v88.4h-41.9V140z M540.1,140v105.8c0,30.2,11.6,45.3,36,45.3c24.4,0,36-15.1,36-45.3V140h41.9v105.8
	c0,23.3-3.5,44.2-23.3,64c-14,14-32.6,18.6-54.7,18.6c-20.9,0-39.5-4.7-54.7-18.6c-18.6-17.4-23.3-29.1-23.3-64V140H540.1z
	 M305.2,230.7c0,34.9,22.1,60.5,51.2,60.5c31.4,0,52.3-25.6,52.3-59.3c0-27.9-16.3-58.1-52.3-58.1
	C325,173.7,305.2,201.6,305.2,230.7z M406.4,140h41.9v183.7h-41.9V304c-17.4,16.3-36,24.4-57,24.4c-48.8,0-87.2-39.5-87.2-97.7
	c0-53.5,37.2-95.3,86-95.3c22.1,0,40.7,9.3,58.1,26.7V140z M225,171.4L190.1,190c-5.8-11.6-12.8-16.3-20.9-16.3
	c-8.1,0-14,5.8-14,12.8s8.1,14,24.4,20.9c37.2,16.3,57,27.9,57,59.3c0,37.2-29.1,61.6-65.1,61.6c-30.2,0-52.3-15.1-65.1-45.3
	l36-16.3c7,15.1,17.4,24.4,30.2,24.4c14,0,20.9-7,20.9-19.8c0-12.8-12.8-19.8-29.1-26.7c-20.9-9.3-48.8-20.9-48.8-53.5
	c0-30.2,20.9-55.8,57-55.8C195.9,135.4,213.4,147,225,171.4z"/>
<path class="st0" d="M1200,1200H0V0h1200V1200z M37.2,1162.8h1125.6V37.2H37.2V1162.8z"/>
</svg>
