<?xml version="1.0" encoding="utf-8"?>

<svg version="1.1" id="Layer_1" xmlns="http://www.w3.org/2000/svg" xmlns:xlink="http://www.w3.org/1999/xlink" x="0px" y="0px"
	 viewBox="0 0 3000 3000" style="enable-background:new 0 0 3000 3000;" xml:space="preserve">
<style type="text/css">
	.st0{fill:#FF07C5;}
</style>
<path d="M2880.8,1557.2c-35-851-621-1439-1384-1439c-762,0-1380,618-1380,1380s618,1337,1469,1381c231,12,460-6,769-56
	c259-42,427-210,469-467C2869.8,2073.2,2890.8,1801.2,2880.8,1557.2z M1412.8,2076.1l-101.9,127.1l-10.5,1
	c-70.4-64-139.7-117.6-223.7-164.9v70.4l5.2,401.1H899.3l5.2-403.2V1655l8.4-7.3h155.4l8.4,8.4v350.7l90.3-100.8l10.5-1.1
	c87.2,48.3,152.3,89.3,236.3,160.7L1412.8,2076.1z M1472.6,817.2c-49.3,107.1-105,202.7-165.9,285.6c33.6,28.4,67.2,58.8,99.8,92.4
	v11.6l-101.9,113.4l-9.5,1.1c-30.5-33.6-60.9-64.1-92.4-94.5c-95.5,97.7-210,178.5-353.9,251c-9.5,5.2-15.8,7.4-20,7.4
	c-7.4,0-13.7-3.1-24.2-10.5l-122.9-84c169.1-72.5,303.5-162.8,404.3-264.6c-35.7-27.3-74.6-54.6-117.6-80.9v-10.5l89.2-97.7l11.5-1
	c38.9,23.1,76.7,46.2,112.4,70.4c36.8-51.5,69.3-108.2,93.5-164.9l-203.7,1c-68.2,94.5-140.7,175.4-214.2,242.6
	c-20,14.7-25.2,13.7-44.1,1.1l-114.5-73.5C838.4,904.4,964.4,752.1,1039,582l10.5-3.2l142.8,51.5l2.1,11.6
	c-11.6,23.1-24.2,45.1-36.8,67.2l143.9-2.1l86.1-6.3l78.8,79.8c7.4,8.4,11.5,12.6,11.5,18.9C1477.9,803.6,1476.8,808.8,1472.6,817.2
	z M2124.7,2245.1c-82.9,106.1-201.6,185.9-361.2,256.2c-9.5,4.2-14.7,6.3-20,6.3c-6.3,0-11.5-3.2-22.1-11.5l-128.1-102.9
	c179.5-59.9,296.1-132.3,382.2-236.3c67.2-81.9,111.3-171.2,132.3-274.1h-356l-160.7,3.2l-9.5-6.3v-144.9l8.4-7.3l159.6,3.2h553.4
	l8.4,7.3C2297.9,1929.1,2239.1,2101.3,2124.7,2245.1z M2431.3,903.3l-7.4,8.4l-161.7-3.1h-52.5c-32.6,233.1-113.4,404.3-310.8,545
	c-10.5,7.4-16.8,11.5-23.1,11.5s-12.6-4.2-24.2-10.5l-133.3-77.7c183.8-102.9,295.1-265.7,319.2-468.3h-168
	c-34.7,57.8-73.5,110.3-114.5,159.6c-5.2,6.3-9.5,9.5-14.7,10.5c-5.2,0-12.6-2.1-23.1-7.4l-128.1-59.9
	c113.4-117.6,197.4-259.4,248.9-432.6l8.4-3.1l150.2,44.1l3.1,10.5c-16.8,46.2-33.6,90.3-53.5,132.3h316.1l159.6-3.2l9.5,6.3V903.3z
	"/>
<path class="st0" d="M2745.8,2336.2c10.4-59.4,14.4-102,12.5-141.4c-0.8-16-14-28.6-30-28.6h-0.1c-7.9,0-15.6,3.2-21.2,8.8
	l-533.4,531.4c-5.7,5.6-8.8,13.3-8.8,21.3l0,0c0,16,12.6,29.2,28.6,30c39.3,1.9,82-2.1,141.4-12.5
	C2571.8,2702.2,2707.8,2555.2,2745.8,2336.2z"/>
</svg>
