<?xml version="1.0" encoding="utf-8"?>
<!-- Generator: Adobe Illustrator 22.0.0, SVG Export Plug-In . SVG Version: 6.00 Build 0)  -->
<svg version="1.1" id="Layer_1" xmlns="http://www.w3.org/2000/svg" xmlns:xlink="http://www.w3.org/1999/xlink" x="0px" y="0px"
	 viewBox="0 0 1624 712" style="enable-background:new 0 0 1624 712;" xml:space="preserve">
<style type="text/css">
	.st0{fill:#2A6DC9;}
	.st1{fill:#FFFFFF;}
</style>
<path id="Bar" class="st0" d="M15,458v235.8c0,9.9,8.1,18,18,18h1573c9.9,0,18-8.1,18-18V458c0-9.9-8.1-18-18-18H33
	C23.1,440,15,448.1,15,458z"/>
<g id="Grab_Bar_Co">
	<path id="XMLID_3_" class="st1" d="M237.4,579.7v12.1l-16.2,1.5l-5,4.1v70.2c-23.2,6.8-43.5,10.3-60.8,10.3
		c-19.7,0-37-4.1-50.6-11.8c-31.7-17.9-50.8-52-50.8-90.5c0-62,40.6-102,105.5-102c17.9,0,37,2.9,56.4,8.5v46.7h-16.5l-4.4-26.7
		l-4.1-5.3c-10.9-5-21.8-7.6-33.5-7.6c-45,0-73.2,31.5-73.2,84.4c0,55.6,29.4,88.8,75.5,88.8c8.5,0,18.5-1.2,30-3.8v-61.1l-5-4.1
		l-20.9-1.5v-12.1h73.6V579.7z"/>
	<path id="XMLID_6_" class="st1" d="M258.6,663.8l15.6-1.5l5.3-4.7V551.2h-20.9v-9.1l34.1-10.6h11.2v27.6
		c10.3-10.6,20.9-20,31.5-28.5c2.4-0.6,5-0.6,7.3-0.6c5.9,0,11.5,1.2,17.6,3.8v25.3h-9.4c-3.8-4.7-8.8-7.1-15-7.1
		c-9.7,0-20,7.3-32,21.5v84.1l5,4.7l20.6,1.5v10.6h-70.8v-10.6H258.6z"/>
	<path id="XMLID_9_" class="st1" d="M416.4,676.4c-23.2,0-37.6-15.6-37.6-37.6c0-30.6,27-39.4,85.8-53.5v-9.4
		c0-23.2-5.9-32.9-27-32.9c-7.3,0-14.4,1.5-22.3,4.7v24.7H395c-6.8,0-9.1-2.1-9.1-9.1c0-17.9,22.3-33.2,59.4-33.2
		c30.9,0,43.8,12.6,43.8,42.3v85.2l5.3,4.7l15.6,1.5v10.6h-41.4l-3.8-17C446.1,669.9,430.5,676.4,416.4,676.4z M464.6,595.6
		c-41.4,11.5-60,19.4-60,40.9c0,14.4,8.8,24.1,23.5,24.1c9.7,0,21.8-4.7,36.4-13.2L464.6,595.6L464.6,595.6z"/>
	<path id="XMLID_12_" class="st1" d="M569.5,458v82.3c14.1-6.8,27.3-10.3,40.3-10.3c34.7,0,58.2,27,58.2,67
		c0,50.6-29.1,77.3-85.2,77.3h-37.6V477.7h-22.9v-9.1l36.2-10.6L569.5,458L569.5,458z M585.7,661.1c38.2,0,55.8-17.9,55.8-58.5
		c0-36.7-16.8-57-46.1-57c-7.3,0-16.2,1.8-25.9,4.7v110.5C578.7,661.1,584.2,661.1,585.7,661.1z"/>
	<path id="XMLID_15_" class="st1" d="M827,477.1c45,0,67.3,15.3,67.3,47.6c0,22.3-14.4,37.3-42.6,45c35,0.3,54.7,18.2,54.7,47
		c0,37-26.7,57.6-76.7,57.6h-77.6v-12.1l16.8-1.5l5-4.1v-162l-5-4.1l-16.8-1.8v-11.8H827V477.1z M811.4,566.8
		c36.7,0,53.8-12.3,53.8-40.9c0-23.8-15.9-35.9-48.2-35.9c-3.8,0-9.4,0.6-16.8,0.9v75.5C804.1,566.8,807.9,566.8,811.4,566.8z
		 M820,660.5c39.4,0,57.6-12.1,57.6-41.7c0-26.7-15.9-39.4-48.5-39.4c-7.6,0-17.3,0.6-28.8,1.8v78.5
		C807.3,660.2,813.8,660.5,820,660.5z"/>
	<path id="XMLID_19_" class="st1" d="M974.3,676.4c-23.2,0-37.6-15.6-37.6-37.6c0-30.6,27-39.4,85.8-53.5v-9.4
		c0-23.2-5.9-32.9-27-32.9c-7.3,0-14.4,1.5-22.3,4.7v24.7h-20.3c-6.8,0-9.1-2.1-9.1-9.1c0-17.9,22.3-33.2,59.4-33.2
		c30.9,0,43.8,12.6,43.8,42.3v85.2l5.3,4.7l15.6,1.5v10.6h-41.4l-3.8-17C1004,669.9,988.4,676.4,974.3,676.4z M1022.5,595.6
		c-41.4,11.5-60,19.4-60,40.9c0,14.4,8.8,24.1,23.5,24.1c9.7,0,21.8-4.7,36.4-13.2L1022.5,595.6L1022.5,595.6z"/>
	<path id="XMLID_22_" class="st1" d="M1086.6,663.8l15.6-1.5l5.3-4.7V551.2h-20.9v-9.1l34.1-10.6h11.2v27.6
		c10.3-10.6,20.9-20,31.5-28.5c2.4-0.6,5-0.6,7.3-0.6c5.9,0,11.5,1.2,17.6,3.8v25.3h-9.4c-3.8-4.7-8.8-7.1-15-7.1
		c-9.7,0-20,7.3-32,21.5v84.1l5,4.7l20.6,1.5v10.6h-70.8L1086.6,663.8L1086.6,663.8z"/>
	<path id="XMLID_24_" class="st1" d="M1367.6,677.9c-19.4,0-36.4-4.1-50-11.8c-31.5-17.9-50.9-52-50.9-90.5c0-61.1,40.9-102,102-102
		c17.3,0,36.7,3.2,58.2,10v45.3h-16.5l-4.4-26.7l-3.8-5.3c-10.9-5-21.5-7.6-32.9-7.6c-43.8,0-72.3,31.7-72.3,84.4
		c0,55.8,29.1,88.8,76.7,88.8c8.2,0,16.8-1.2,25.6-3.8l4.7-4.7l6.5-32.6h16.5v46.4C1407.5,674.3,1387.3,677.9,1367.6,677.9z"/>
	<path id="XMLID_26_" class="st1" d="M1591.8,603.5c0,43.5-29.1,73.5-68.5,73.5s-68.2-30-68.2-73.5c0-43.8,28.5-73.5,68.2-73.5
		S1591.8,560,1591.8,603.5z M1482.8,603.5c0,37.9,17,60.8,40.6,60.8c23.8,0,40.9-22.6,40.9-60.8c0-37.9-17-60.8-40.9-60.8
		S1482.8,565.3,1482.8,603.5z"/>
</g>
<g id="THRIVE">
	<path id="XMLID_134_" d="M595,0c0,0-2,76.1-2,201s2,202,2,202h-40V224H365v177h-41c0,0,2-75,2-199.5S324,0,324,0h41v182h190V0H595z
		"/>
	<polygon id="XMLID_136_" points="291,1 291,42 165,42 165,401 125,401 125,42 0,42 0,1 	"/>
	<rect id="XMLID_138_" x="983.8" y="0.4" width="40" height="400.9"/>
	<path id="XMLID_230_" d="M941,401l-82-166.4c47.2-16.4,81-60.8,81-113.1l0,0v-0.1C940,55.1,886,1.3,819,1.3V1H660
		c0,0,2,72.5,2,200.5S660,401,660,401h40V241h119v0.4c0.1,0,0.2-0.2,0.3-0.2L898,401H941z M700,42h119.8C864,42,899,77.1,899,121.3
		S864,201,819.8,201H700V42z"/>
	<path id="XMLID_140_" d="M1302.7,0c0,0-27.2,91-60.2,201.3c-18.3,61.1-31.3,115.9-39.2,152.5c-8.5-36.7-22.2-91.7-40.4-152.7
		C1129.9,90.9,1102.8,0,1102.8,0h-40l120,401h40l120-401H1302.7z"/>
	<path id="XMLID_4_" d="M1363,1c0,0,2,87.1,2,200.4s-2,199.6-2,199.6h261v-40l-221,1V222h140v-40h-140V42l221,1V1H1363z"/>
</g>
</svg>
