<?xml version="1.0" encoding="utf-8"?>
<!-- Generator: Adobe Illustrator 22.0.0, SVG Export Plug-In . SVG Version: 6.00 Build 0)  -->
<svg version="1.1" id="Layer_1" xmlns="http://www.w3.org/2000/svg" xmlns:xlink="http://www.w3.org/1999/xlink" x="0px" y="0px"
	 viewBox="0 0 1624 867.4" style="enable-background:new 0 0 1624 867.4;" xml:space="preserve">
<style type="text/css">
	.st0{fill:#2A6DC9;}
	.st1{fill:#FFFFFF;}
</style>
<path class="st0" d="M1588.3,867.4H41.5c-19.7,0-35.7-16-35.7-35.7v-796C5.8,16,21.8,0,41.5,0h1546.8c19.7,0,35.7,16,35.7,35.7v796
	C1624,851.4,1608,867.4,1588.3,867.4z"/>
<g id="Grab_Bar_Co">
	<path id="XMLID_3_" class="st1" d="M311.9,639.5v10.6l-14.2,1.3l-4.4,3.6v61.6c-20.4,6-38.2,9-53.4,9c-17.3,0-32.5-3.6-44.4-10.4
		c-27.8-15.7-44.6-45.6-44.6-79.4c0-54.4,35.6-89.5,92.6-89.5c15.7,0,32.5,2.5,49.5,7.5v41h-14.5l-3.9-23.4l-3.6-4.7
		c-9.6-4.4-19.1-6.7-29.4-6.7c-39.5,0-64.3,27.6-64.3,74.1c0,48.8,25.8,77.9,66.3,77.9c7.5,0,16.2-1.1,26.3-3.3v-53.6l-4.4-3.6
		l-18.3-1.3v-10.6L311.9,639.5L311.9,639.5z"/>
	<path id="XMLID_6_" class="st1" d="M330.5,713.3l13.7-1.3l4.7-4.1v-93.4h-18.3v-8l29.9-9.3h9.8v24.2c9-9.3,18.3-17.6,27.6-25
		c2.1-0.5,4.4-0.5,6.4-0.5c5.2,0,10.1,1.1,15.4,3.3v22.2h-8.3c-3.3-4.1-7.7-6.2-13.2-6.2c-8.5,0-17.6,6.4-28.1,18.9v73.8l4.4,4.1
		l18.1,1.3v9.3h-62.1L330.5,713.3L330.5,713.3L330.5,713.3z"/>
	<path id="XMLID_9_" class="st1" d="M469,724.4c-20.4,0-33-13.7-33-33c0-26.9,23.7-34.6,75.3-47v-8.3c0-20.4-5.2-28.9-23.7-28.9
		c-6.4,0-12.6,1.3-19.6,4.1v21.7h-17.8c-6,0-8-1.8-8-8c0-15.7,19.6-29.1,52.1-29.1c27.1,0,38.4,11.1,38.4,37.1v74.8l4.7,4.1
		l13.7,1.3v9.3h-36.3l-3.3-14.9C495.1,718.7,481.4,724.4,469,724.4z M511.3,653.5c-36.3,10.1-52.7,17-52.7,35.9
		c0,12.6,7.7,21.2,20.6,21.2c8.5,0,19.1-4.1,31.9-11.6L511.3,653.5L511.3,653.5z"/>
	<path id="XMLID_12_" class="st1" d="M603.4,532.7v72.2c12.4-6,24-9,35.4-9c30.5,0,51.1,23.7,51.1,58.8c0,44.4-25.5,67.8-74.8,67.8
		h-33V550H562v-8l31.8-9.3H603.4L603.4,532.7z M617.6,711c33.5,0,49-15.7,49-51.3c0-32.2-14.7-50-40.5-50c-6.4,0-14.2,1.6-22.7,4.1
		v97C611.5,711,616.3,711,617.6,711z"/>
	<path id="XMLID_15_" class="st1" d="M829.4,549.5c39.5,0,59.1,13.4,59.1,41.8c0,19.6-12.6,32.7-37.4,39.5c30.7,0.3,48,16,48,41.3
		c0,32.5-23.4,50.6-67.3,50.6h-68.1v-10.6l14.7-1.3l4.4-3.6V564.8l-4.4-3.6l-14.7-1.6v-10.4h65.7V549.5z M815.7,628.2
		c32.2,0,47.2-10.8,47.2-35.9c0-20.9-14-31.5-42.3-31.5c-3.3,0-8.3,0.5-14.7,0.8v66.3C809.3,628.2,812.7,628.2,815.7,628.2z
		 M823.3,710.4c34.6,0,50.6-10.6,50.6-36.6c0-23.4-14-34.6-42.6-34.6c-6.7,0-15.2,0.5-25.3,1.6v68.9
		C812.1,710.2,817.8,710.4,823.3,710.4z"/>
	<path id="XMLID_19_" class="st1" d="M958.7,724.4c-20.4,0-33-13.7-33-33c0-26.9,23.7-34.6,75.3-47v-8.3c0-20.4-5.2-28.9-23.7-28.9
		c-6.4,0-12.6,1.3-19.6,4.1v21.7h-17.8c-6,0-8-1.8-8-8c0-15.7,19.6-29.1,52.1-29.1c27.1,0,38.4,11.1,38.4,37.1v74.8l4.7,4.1
		l13.7,1.3v9.3h-36.3l-3.3-14.9C984.8,718.7,971.1,724.4,958.7,724.4z M1001,653.5c-36.3,10.1-52.7,17-52.7,35.9
		c0,12.6,7.7,21.2,20.6,21.2c8.5,0,19.1-4.1,31.9-11.6L1001,653.5L1001,653.5z"/>
	<path id="XMLID_22_" class="st1" d="M1057.3,713.3l13.7-1.3l4.7-4.1v-93.4h-18.3v-8l29.9-9.3h9.8v24.2c9-9.3,18.3-17.6,27.6-25
		c2.1-0.5,4.4-0.5,6.4-0.5c5.2,0,10.1,1.1,15.4,3.3v22.2h-8.3c-3.3-4.1-7.7-6.2-13.2-6.2c-8.5,0-17.6,6.4-28.1,18.9v73.8l4.4,4.1
		l18.1,1.3v9.3h-62.1L1057.3,713.3L1057.3,713.3z"/>
	<path id="XMLID_24_" class="st1" d="M1303.9,725.7c-17,0-31.9-3.6-43.9-10.4c-27.6-15.7-44.7-45.6-44.7-79.4
		c0-53.6,35.9-89.5,89.5-89.5c15.2,0,32.2,2.8,51.1,8.8v39.8h-14.5l-3.9-23.4l-3.3-4.7c-9.6-4.4-18.9-6.7-28.9-6.7
		c-38.4,0-63.5,27.8-63.5,74.1c0,49,25.5,77.9,67.3,77.9c7.2,0,14.7-1.1,22.5-3.3l4.1-4.1l5.7-28.6h14.5v40.7
		C1339,722.5,1321.2,725.7,1303.9,725.7z"/>
	<path id="XMLID_26_" class="st1" d="M1500.7,660.4c0,38.2-25.5,64.5-60.1,64.5s-59.9-26.3-59.9-64.5c0-38.4,25-64.5,59.9-64.5
		C1475.4,595.9,1500.7,622.2,1500.7,660.4z M1405.1,660.4c0,33.3,14.9,53.4,35.6,53.4c20.9,0,35.9-19.8,35.9-53.4
		c0-33.3-14.9-53.4-35.9-53.4S1405.1,626.9,1405.1,660.4z"/>
</g>
<g id="THRIVE">
	<path id="XMLID_134_" class="st1" d="M613.6,130.7c0,0-1.8,66.8-1.8,176.4s1.8,177.3,1.8,177.3h-35.1V327.3H411.7v155.4h-36
		c0,0,1.8-65.8,1.8-175.1s-1.8-176.9-1.8-176.9h36v159.7h166.8V130.7H613.6z"/>
	<polygon id="XMLID_136_" class="st1" points="346.7,131.6 346.7,167.5 236.1,167.5 236.1,482.7 201,482.7 201,167.5 91.3,167.5 
		91.3,131.6 	"/>
	<rect id="XMLID_138_" x="954.8" y="131" class="st1" width="35.1" height="351.9"/>
	<path id="XMLID_230_" class="st1" d="M917.2,482.7l-72-146.1c41.4-14.4,71.1-53.4,71.1-99.3l0,0v-0.1
		c0-58.2-47.4-105.4-106.2-105.4v-0.3H670.6c0,0,1.8,63.6,1.8,176s-1.8,175.1-1.8,175.1h35.1V342.2h104.5v0.4c0.1,0,0.2-0.2,0.3-0.2
		l69.1,140.3H917.2z M705.7,167.5h105.2c38.8,0,69.5,30.8,69.5,69.6s-30.7,70-69.5,70H705.7V167.5z"/>
	<path id="XMLID_140_" class="st1" d="M1234.7,130.7c0,0-23.9,79.9-52.8,176.7c-16.1,53.6-27.5,101.7-34.4,133.9
		c-7.5-32.2-19.5-80.5-35.5-134c-29-96.7-52.8-176.5-52.8-176.5h-35.1l105.3,352h35.1l105.3-352H1234.7z"/>
	<path id="XMLID_4_" class="st1" d="M1287.7,131.6c0,0,1.8,76.5,1.8,175.9s-1.8,175.2-1.8,175.2h229.1v-35.1l-194,0.9V325.5h122.9
		v-35.1h-122.9V167.5l194,0.9v-36.9H1287.7z"/>
</g>
</svg>
